<?xml version="1.0" standalone="no"?>
<!DOCTYPE svg PUBLIC "-//W3C//DTD SVG 20010904//EN"
 "http://www.w3.org/TR/2001/REC-SVG-20010904/DTD/svg10.dtd">
<svg version="1.0" xmlns="http://www.w3.org/2000/svg"
 width="1563.000000pt" height="1563.000000pt" viewBox="0 0 1563.000000 1563.000000"
 preserveAspectRatio="xMidYMid meet">

<g transform="translate(0.000000,1563.000000) scale(0.100000,-0.100000)"
fill="#000000" stroke="none">
<path d="M0 11699 l0 -3932 142 7 c216 9 397 10 450 2 28 -4 60 -18 78 -32 29
-25 29 -26 15 -61 -17 -41 -13 -53 20 -53 24 0 41 25 25 35 -12 7 -13 68 -3
79 5 4 8 13 8 19 0 7 24 15 57 18 32 4 71 12 87 19 26 10 33 10 46 -4 20 -20
43 -20 83 -1 25 13 41 14 99 4 69 -11 387 -4 439 10 15 4 59 4 99 0 40 -4 101
-6 136 -4 84 5 113 -2 144 -32 30 -31 31 -40 4 -48 -28 -9 -89 -64 -89 -81 0
-8 -4 -14 -9 -14 -18 0 -22 -39 -7 -67 17 -33 45 -49 100 -57 46 -6 54 -12 38
-28 -18 -18 -14 -28 11 -28 18 0 19 2 7 10 -8 5 -10 10 -3 10 6 0 9 9 6 20 -3
11 -11 20 -19 20 -7 0 -11 6 -8 14 3 9 -7 24 -25 37 -39 29 -39 43 -1 66 30
18 46 45 35 62 -3 5 6 21 20 35 14 14 25 32 25 40 0 28 91 59 105 36 3 -6 16
-10 28 -10 12 0 42 -9 66 -20 35 -16 41 -23 32 -34 -6 -7 -25 -16 -41 -20 -34
-6 -38 -21 -13 -48 16 -18 16 -20 -12 -43 -36 -29 -28 -40 37 -48 45 -6 49 -5
62 22 9 16 22 31 31 35 12 4 15 19 13 70 -2 52 2 69 17 86 19 21 23 21 320 15
291 -5 301 -5 302 14 4 52 25 102 46 110 13 5 74 18 137 29 454 81 808 73
1018 -23 59 -27 181 -144 204 -196 12 -26 16 -28 50 -22 34 5 38 3 38 -16 0
-29 17 -61 33 -61 7 0 25 11 41 23 40 32 30 54 -28 62 -36 6 -46 11 -46 26 0
40 93 55 125 19 14 -16 20 -17 30 -6 19 18 169 22 185 4 6 -7 20 -27 30 -44
18 -31 19 -31 60 -21 36 10 44 9 54 -5 14 -19 106 -38 186 -38 43 0 59 -4 69
-18 9 -13 21 -17 38 -14 21 4 24 9 19 33 -4 22 -2 29 9 29 8 0 15 4 15 9 0 13
-121 24 -174 16 -32 -5 -51 -3 -62 6 -9 7 -23 14 -31 15 -22 3 -23 7 -9 26 18
25 163 35 204 14 15 -8 41 -16 57 -18 33 -3 69 -33 59 -49 -3 -6 -12 -8 -20
-5 -8 3 -11 0 -7 -10 4 -10 9 -12 18 -4 6 5 16 6 20 2 5 -4 4 -1 0 7 -6 11 -4
13 8 8 14 -5 17 0 17 23 0 16 6 33 14 37 17 10 48 73 71 143 9 30 22 60 29 67
11 12 164 35 177 27 4 -2 10 -21 14 -41 11 -59 45 -155 63 -177 19 -23 62 -23
75 0 11 19 20 18 47 -6 13 -11 34 -20 47 -20 12 0 23 -4 23 -9 0 -11 -25 -21
-50 -21 -10 0 -21 -7 -24 -16 -3 -8 -10 -13 -15 -10 -18 11 -22 -28 -5 -41 10
-7 15 -16 11 -19 -4 -4 -12 -2 -19 3 -7 6 -21 10 -30 10 -22 0 -18 -30 18
-131 14 -39 31 -88 36 -108 6 -21 14 -38 19 -38 5 0 9 -9 9 -19 0 -11 3 -27 7
-36 5 -15 8 -14 19 6 7 13 13 19 14 14 0 -6 12 -10 28 -10 15 1 44 -5 65 -13
42 -16 58 -10 39 16 -7 9 -15 25 -19 35 -4 13 -9 15 -19 6 -10 -8 -14 -8 -14
0 0 6 -6 11 -14 11 -10 0 -15 15 -18 48 l-3 48 40 1 c22 1 55 4 74 8 26 6 33
5 29 -6 -3 -8 -12 -13 -22 -11 -10 2 -16 -4 -16 -15 0 -32 17 -45 64 -49 104
-8 226 -55 195 -75 -8 -5 -40 -9 -73 -9 -67 0 -186 -20 -186 -31 0 -9 -41 -18
-98 -21 -59 -3 -66 -15 -44 -74 l18 -49 97 4 c90 3 97 2 97 -16 0 -11 -10 -29
-22 -41 -19 -17 -34 -20 -80 -18 -64 3 -70 -6 -46 -59 10 -23 30 -31 67 -25 8
1 35 -1 60 -5 56 -8 37 -25 -29 -25 -68 0 -76 -8 -59 -65 8 -25 19 -51 25 -56
6 -5 62 -13 125 -18 107 -8 109 -9 34 -9 -44 0 -88 -3 -97 -7 -9 -4 -21 -4
-27 -1 -31 19 -16 -57 32 -164 11 -25 21 -49 21 -55 1 -5 19 -10 41 -11 114
-2 130 -4 112 -15 -9 -6 -15 -14 -12 -20 4 -5 -1 -9 -10 -9 -10 0 -15 -6 -12
-13 4 -10 -3 -12 -23 -9 -16 2 -35 0 -43 -4 -13 -8 -14 -13 -1 -43 l14 -33 54
6 c40 5 57 4 63 -6 12 -20 86 -52 113 -50 8 1 22 -3 30 -8 13 -9 13 -12 -4
-25 -17 -13 -16 -14 18 -11 20 2 35 1 34 -3 -14 -25 -48 -104 -48 -110 0 -3
-73 -6 -162 -5 -90 0 -130 -1 -90 -3 43 -2 70 -8 67 -13 -4 -6 -2 -10 4 -10 6
0 8 -7 5 -15 -8 -20 23 -31 131 -45 90 -12 137 -26 105 -32 -8 -1 -197 -3
-420 -3 -231 0 -489 -6 -600 -13 -107 -8 -217 -15 -245 -17 -27 -2 -77 -8
-109 -15 -36 -7 -61 -8 -65 -2 -18 27 -581 33 -737 7 -41 -7 -42 -6 -49 23 -5
25 -12 31 -41 34 -38 4 -64 -5 -45 -16 6 -4 9 -12 6 -17 -4 -5 0 -9 9 -9 8 0
17 6 19 13 3 7 6 6 6 -5 1 -9 -7 -19 -17 -22 -28 -9 -203 -26 -356 -35 -91 -5
-141 -12 -144 -19 -2 -7 -19 -12 -38 -12 -19 0 -34 -4 -34 -10 0 -5 -16 -10
-35 -10 -19 0 -35 5 -35 10 0 6 -7 10 -16 10 -17 0 -44 -23 -44 -38 0 -21 518
-30 776 -13 88 5 167 6 189 1 49 -11 193 -3 223 12 18 9 28 9 42 0 24 -15 74
-16 65 -2 -7 12 190 8 202 -3 3 -4 -3 -7 -15 -7 -11 0 -44 -5 -72 -11 -39 -8
-50 -15 -50 -30 0 -21 -4 -20 140 -24 623 -19 819 -27 836 -38 13 -7 85 -16
191 -22 95 -5 123 -11 123 -26 0 -8 -37 -12 -100 -11 -336 8 -629 -1 -815 -25
-53 -6 -437 -18 -442 -13 -5 5 -40 9 -108 11 -93 3 -486 20 -550 24 -85 5
-312 5 -340 0 -11 -2 -28 -4 -37 -4 -36 -2 -17 -21 20 -21 122 0 275 -34 402
-90 38 -16 80 -31 94 -32 14 -1 26 -5 26 -8 0 -3 102 -3 227 -2 249 4 235 0
258 65 l11 28 638 2 c594 2 638 1 647 -15 5 -9 11 -56 13 -103 2 -48 6 -88 8
-89 1 -2 37 -6 78 -9 41 -4 77 -7 80 -8 12 -3 -79 -18 -116 -18 -48 -1 -54
-11 -54 -103 l0 -58 -50 0 c-46 0 -50 2 -50 25 0 21 -35 123 -45 134 -2 1
-142 2 -311 2 -218 -1 -310 -5 -315 -13 -12 -20 -21 -200 -17 -366 l3 -162 36
0 c20 0 96 7 170 15 74 8 157 16 184 18 42 3 39 4 -18 5 -43 1 -66 6 -62 12 8
13 185 13 185 0 0 -6 30 -10 70 -10 63 0 71 -2 86 -25 12 -19 15 -41 12 -85
-2 -33 -7 -63 -11 -66 -3 -4 -122 -2 -264 5 -142 6 -287 12 -323 14 l-65 2 0
-320 c0 -176 3 -332 7 -346 14 -49 42 -54 272 -53 233 1 283 9 367 62 55 35
109 114 155 226 l34 81 41 -2 c23 -1 46 -6 51 -11 5 -5 -2 -58 -17 -123 -48
-222 -80 -313 -123 -352 -23 -21 32 -20 -727 -13 -468 5 -589 8 -587 18 11 43
85 82 173 92 l56 7 7 91 c8 117 8 1152 0 1240 l-7 67 -276 -1 c-321 -2 -387 6
-279 33 39 10 118 13 306 11 258 -3 269 -2 244 34 -9 14 -45 27 -37 14 4 -6
-9 -8 -33 -5 -93 12 -534 -1 -562 -16 -9 -5 -21 -2 -32 8 -14 13 -16 13 -14 0
1 -8 6 -21 12 -28 13 -18 31 -58 39 -86 6 -23 50 -43 96 -43 15 0 31 -5 34
-10 4 -6 3 -10 -2 -9 -4 1 -32 1 -60 0 l-53 -1 0 -65 c0 -93 -17 -159 -62
-248 -34 -64 -51 -85 -106 -126 -35 -27 -99 -66 -141 -87 -42 -20 -77 -38 -79
-40 -6 -4 173 -311 256 -438 103 -157 177 -233 277 -282 57 -28 90 -38 145
-42 39 -2 70 -9 70 -15 0 -29 -26 -76 -44 -82 -48 -14 -264 -18 -317 -5 -209
48 -311 161 -594 655 -31 55 -64 106 -73 112 -10 9 -52 13 -120 13 l-104 0 4
-297 c3 -164 8 -306 12 -315 11 -24 71 -45 156 -52 100 -10 104 -12 84 -62
l-15 -39 -385 0 c-412 0 -410 0 -361 49 26 26 89 50 162 63 l50 8 6 110 c4 61
7 345 8 632 1 445 -1 524 -14 536 -11 12 -63 16 -239 22 -123 4 -228 5 -233 2
-18 -11 -640 -10 -659 1 -15 9 -12 12 22 21 21 6 67 11 102 11 40 0 71 6 87
16 58 38 210 49 363 27 49 -7 65 -7 70 4 6 10 22 10 88 -3 79 -14 151 -14 304
2 84 8 100 17 100 55 0 18 -4 28 -10 24 -6 -3 -10 -2 -10 4 0 25 -38 30 -115
16 -97 -19 -121 -19 -129 1 -3 8 -2 12 3 9 6 -3 13 15 17 41 4 31 12 48 25 52
16 6 15 8 -7 19 -13 6 -22 7 -18 2 3 -5 -2 -9 -12 -9 -32 0 10 45 45 48 20 2
31 8 28 15 -2 7 -11 11 -20 9 -9 -1 -28 5 -43 14 -22 15 -27 15 -35 3 -6 -9
-12 -10 -16 -4 -5 6 -35 12 -67 13 -34 1 -63 7 -67 14 -6 9 -13 9 -31 1 -20
-10 -57 -23 -80 -29 -5 -1 -30 -2 -57 -3 -29 0 -56 -7 -65 -16 -16 -17 -53
-19 -75 -6 -12 8 -12 12 -2 25 9 10 11 28 7 51 -5 27 -3 37 9 41 18 7 12 7
236 4 191 -2 429 20 429 39 0 9 -117 22 -235 27 -243 10 -358 24 -315 37 8 2
32 10 52 16 21 7 42 10 47 7 13 -9 41 4 41 18 0 8 -23 13 -70 14 -55 1 -70 -2
-70 -14 0 -11 -16 -14 -75 -14 -73 0 -75 -1 -90 -31 -9 -17 -31 -37 -51 -45
-19 -8 -37 -21 -41 -30 -9 -24 -70 -45 -99 -34 -14 6 -27 10 -29 10 -1 0 -10
-18 -18 -39 -9 -22 -20 -42 -25 -45 -4 -2 -44 -8 -88 -11 -67 -6 -82 -11 -100
-32 -16 -19 -35 -27 -80 -32 -66 -9 -114 -26 -114 -40 0 -15 -59 -31 -114 -31
-63 1 -89 18 -81 53 5 20 1 29 -19 42 -14 10 -33 15 -41 12 -8 -4 -21 0 -29 9
-8 8 -17 11 -19 6 -7 -10 14 -37 33 -45 12 -4 11 -6 -2 -6 -11 -1 -18 -9 -18
-21 0 -16 -7 -20 -36 -20 -19 0 -45 5 -56 11 -16 9 -36 7 -84 -6 -40 -11 -74
-14 -91 -10 -16 4 -55 9 -88 10 -33 1 -74 9 -90 17 -17 8 -61 18 -100 22 -160
15 -222 24 -242 34 -12 7 -65 12 -120 12 -54 0 -127 5 -163 11 -36 5 -91 12
-122 14 -64 4 -78 9 -78 31 0 8 4 13 10 9 10 -6 494 12 549 21 19 3 30 9 25
14 -10 10 -330 38 -467 42 -73 2 -87 5 -85 17 3 11 11 14 28 11 37 -7 318 -6
760 4 217 5 454 9 527 8 117 0 132 2 136 17 2 10 10 18 18 19 60 4 155 25 161
35 10 17 -27 29 -82 27 -275 -10 -1216 7 -1500 26 -58 4 -114 8 -124 8 -20 1
-33 43 -52 165 l-7 44 84 -6 c46 -4 210 -2 364 4 236 9 285 14 310 29 36 21
90 39 128 42 44 4 31 14 -38 32 -54 13 -129 16 -468 16 l-404 0 -12 57 c-6 31
-9 59 -6 61 3 3 5 0 5 -7 0 -7 4 -9 10 -6 5 3 24 7 42 9 18 2 66 7 106 11 51
5 72 4 72 -4 0 -6 -15 -11 -34 -11 -32 0 -53 -20 -41 -39 2 -5 66 -9 141 -10
106 -1 135 1 130 11 -3 7 -9 20 -12 30 -9 26 -116 78 -160 78 -65 0 -144 -12
-144 -22 0 -5 4 -6 10 -3 5 3 10 2 10 -4 0 -15 -16 -22 -33 -15 -9 3 -13 12
-11 19 4 9 -12 17 -48 25 -55 13 -68 23 -68 52 0 13 12 19 50 24 64 8 87 38
43 55 -15 6 -45 11 -65 11 -23 -1 -38 4 -39 11 0 7 -4 33 -8 60 -9 52 -8 52
66 48 27 -1 33 2 33 18 0 11 13 30 30 43 54 39 42 52 -62 63 -36 4 -70 10 -77
14 -6 4 -15 41 -21 82 -12 96 -12 112 0 104 18 -11 187 -7 209 5 28 14 18 30
-20 30 -18 0 -28 4 -24 10 4 6 -18 10 -57 11 -62 0 -108 6 -115 13 -2 2 36 4
84 5 75 1 138 5 368 25 44 3 59 14 44 32 -18 22 -142 33 -381 34 l-127 0 -4
48 c-2 26 -4 -1624 -5 -3665 l-2 -3713 7815 0 7815 0 0 7815 0 7815 -7815 0
-7815 0 0 -3931z m8055 3911 c387 -17 588 -36 920 -84 179 -26 492 -85 585
-110 30 -9 105 -27 165 -42 250 -61 582 -164 569 -177 -3 -3 3 -3 15 0 12 3
21 1 21 -6 0 -5 6 -8 14 -5 8 3 25 0 38 -7 13 -7 28 -13 33 -14 6 0 29 -7 53
-15 31 -9 39 -16 30 -23 -9 -6 -8 -7 5 -3 10 3 28 1 40 -6 12 -6 29 -13 37
-13 54 -7 595 -243 611 -267 3 -6 8 -8 10 -7 2 2 23 -5 47 -14 27 -11 40 -21
36 -29 -4 -7 -3 -8 5 -4 12 8 253 -113 246 -124 -2 -4 6 -6 18 -6 13 1 22 -5
22 -14 1 -8 6 -14 13 -12 25 5 322 -170 562 -331 278 -188 621 -449 617 -470
-1 -7 4 -11 11 -9 27 5 361 -297 639 -580 236 -241 541 -598 527 -619 -4 -7
-3 -9 4 -5 15 9 52 -42 45 -62 -3 -12 -2 -13 4 -4 12 15 57 -43 47 -60 -4 -6
-3 -8 4 -4 6 4 47 -44 100 -116 110 -153 128 -180 114 -176 -10 3 -12 -1 -12
-23 0 -8 4 -8 14 0 11 9 18 6 36 -19 15 -21 17 -30 8 -30 -7 0 -1 -10 15 -21
15 -11 25 -25 21 -30 -3 -5 -1 -9 5 -9 14 0 62 -71 55 -82 -3 -4 -1 -8 5 -8
10 0 51 -61 51 -76 0 -5 -10 -20 -21 -34 -11 -14 -18 -19 -14 -12 4 7 1 21 -7
30 -12 15 -11 16 5 3 23 -19 22 -5 -4 22 -12 14 -18 16 -14 6 3 -9 -1 -22 -11
-30 -14 -11 -18 -11 -22 -1 -3 10 -7 10 -18 1 -9 -7 -14 -8 -14 -1 0 6 -12 9
-27 7 -15 -1 -36 3 -47 10 -16 12 -21 11 -39 -6 -22 -20 -47 -25 -47 -10 0 5
-10 11 -22 13 -29 4 -38 38 -10 38 29 0 35 27 9 46 -15 11 -18 18 -9 21 6 3
12 11 12 18 0 10 -16 12 -67 8 -90 -6 -96 -9 -90 -35 4 -12 1 -28 -5 -35 -6
-7 -18 -28 -27 -46 -16 -31 -18 -32 -90 -35 -59 -2 -78 -7 -91 -22 -22 -26
-50 -25 -57 0 -4 16 -14 20 -44 20 -32 0 -39 3 -39 20 0 24 -22 26 -40 5 -7
-8 -16 -15 -21 -15 -4 0 -19 -10 -33 -23 l-25 -23 22 -22 21 -22 -41 0 c-23 0
-45 -4 -48 -10 -8 -13 -61 -13 -86 0 -13 7 -19 7 -19 0 0 -12 -67 -13 -74 -1
-4 5 0 12 6 14 8 4 5 8 -9 12 -11 4 -23 15 -26 26 -3 13 -14 19 -31 19 -14 0
-26 5 -26 10 0 6 -13 10 -30 10 -24 0 -30 -4 -30 -20 0 -12 -6 -31 -14 -43 -8
-12 -17 -38 -20 -58 -8 -43 -37 -57 -63 -31 -12 12 -18 13 -21 4 -6 -19 -29
-14 -35 9 -7 25 -28 21 -41 -7 -7 -16 -18 -19 -55 -18 -71 3 -91 -26 -49 -68
16 -16 17 -20 5 -15 -9 3 -17 2 -17 -3 0 -5 -7 -7 -16 -3 -13 5 -15 -1 -13
-28 2 -19 -3 -45 -10 -57 -7 -13 -10 -26 -7 -29 3 -4 2 -11 -3 -17 -5 -6 -22
-42 -37 -81 -15 -38 -34 -80 -42 -93 -8 -12 -12 -25 -9 -28 3 -3 -1 -13 -10
-22 -8 -9 -46 -71 -84 -137 -37 -66 -74 -128 -81 -137 -7 -9 -38 -56 -68 -103
-30 -47 -60 -85 -66 -85 -6 0 -18 7 -25 16 -21 26 -157 127 -230 172 -80 48
-232 122 -253 122 -8 0 -18 5 -21 10 -3 6 -12 10 -20 10 -8 0 -26 5 -42 12
-32 13 -58 19 -90 20 -13 0 -21 4 -18 8 6 10 -51 24 -64 16 -5 -4 -11 -1 -13
6 -3 7 -26 12 -60 12 -31 1 -51 4 -45 8 5 3 -7 6 -27 5 -32 -1 -35 -3 -21 -13
14 -11 11 -14 -27 -22 -36 -8 -38 -10 -14 -11 16 -1 27 -3 24 -6 -3 -4 -30 -3
-59 1 -45 6 -50 9 -29 15 24 7 24 7 -5 8 -21 1 -26 4 -16 10 7 5 9 11 5 13
-21 12 -80 17 -94 8 -13 -9 -13 -10 0 -10 9 -1 5 -6 -10 -15 -14 -8 -38 -14
-55 -13 -29 1 -29 1 5 7 54 9 22 19 -37 12 -29 -4 -50 -4 -47 0 2 4 -4 10 -13
14 -10 3 -19 2 -21 -3 -1 -5 -23 -7 -47 -4 -32 3 -45 1 -45 -8 0 -7 -8 -10
-20 -7 -11 3 -17 1 -14 -4 3 -6 -6 -7 -23 -4 -24 5 -25 4 -7 -4 28 -12 40 -31
20 -31 -9 0 -16 5 -16 10 0 6 -5 10 -11 10 -6 0 -8 -7 -5 -16 11 -28 -4 -34
-45 -17 -47 18 -95 14 -159 -14 -25 -11 -80 -35 -122 -53 -45 -19 -75 -37 -71
-43 3 -6 1 -7 -5 -3 -13 8 -118 -55 -216 -131 -98 -75 -181 -156 -289 -283
-77 -89 -193 -295 -251 -441 -36 -92 -83 -280 -96 -380 -60 -483 116 -994 465
-1344 260 -262 587 -425 948 -474 113 -16 346 -13 462 4 272 41 553 161 759
325 42 33 80 60 85 60 15 0 212 -309 279 -437 119 -231 162 -396 169 -643 2
-91 0 -192 -4 -225 -8 -59 -9 -60 -38 -56 -16 1 -54 16 -85 31 -61 31 -256
176 -335 249 -28 25 -73 66 -100 90 l-50 44 -8 -222 c-5 -142 -14 -254 -25
-311 -10 -49 -16 -88 -13 -88 37 3 101 -4 96 -11 -3 -6 -28 -9 -56 -7 -49 2
-50 2 -84 -46 -19 -26 -39 -48 -43 -48 -15 0 -97 57 -135 94 -20 20 -60 70
-87 111 -27 40 -60 81 -72 89 -12 9 -19 16 -16 16 8 0 -54 112 -111 200 -47
72 -41 77 -96 -90 -75 -227 -176 -451 -225 -495 -18 -16 -23 -17 -46 -5 -63
34 -184 296 -263 567 l-27 92 -111 -167 c-113 -169 -160 -230 -261 -335 -75
-78 -86 -83 -111 -51 -32 40 -77 170 -97 274 -9 52 -20 168 -23 256 l-6 161
-136 -116 c-234 -199 -335 -268 -409 -278 -33 -5 -39 -2 -46 18 -18 54 -1 204
66 578 12 62 19 115 17 118 -2 2 -80 -33 -173 -77 -248 -119 -413 -179 -493
-180 -23 0 -23 1 -18 83 7 114 42 210 153 412 118 215 115 207 72 194 -112
-33 -333 -62 -505 -66 -100 -3 -189 -3 -197 0 -13 5 -11 16 13 66 75 159 150
262 314 428 56 56 99 104 96 106 -2 2 -98 11 -212 21 -289 24 -466 58 -522
100 -19 15 -17 18 54 83 115 105 192 164 368 280 118 79 158 110 147 116 -8 5
-66 26 -129 48 -290 99 -472 177 -509 218 -35 38 3 83 124 148 101 53 314 144
420 178 30 10 58 21 62 24 5 4 -37 31 -93 61 -149 80 -278 184 -349 282 -15
20 -31 34 -35 30 -5 -4 -5 -2 -1 5 7 12 -31 85 -49 92 -11 5 125 50 240 81 86
22 128 27 322 36 l153 7 -33 31 c-17 17 -49 51 -69 76 -20 25 -58 69 -85 97
-26 29 -61 69 -78 89 -42 51 -55 64 -66 64 -5 0 -9 -5 -9 -11 0 -5 -5 -7 -11
-3 -8 5 -6 10 5 16 9 5 21 6 26 3 6 -3 7 1 4 9 -3 9 -10 13 -15 10 -5 -3 -9 0
-9 6 0 6 -5 8 -12 4 -8 -5 -9 -2 -5 9 4 11 1 17 -8 17 -8 0 -15 6 -15 13 0 8
-4 7 -10 -3 -5 -8 -10 -19 -10 -25 0 -5 4 -4 9 4 6 9 10 0 13 -28 2 -22 0 -41
-4 -41 -5 0 -8 5 -8 11 0 6 -7 8 -16 5 -8 -3 -12 -2 -9 4 3 6 1 10 -4 10 -6 0
-10 11 -9 24 1 14 6 22 10 20 5 -3 11 3 15 12 4 10 2 19 -5 22 -6 2 -8 11 -5
20 3 11 2 13 -4 6 -4 -6 -15 -11 -23 -12 -8 0 -34 -4 -57 -8 -47 -7 -68 -34
-28 -34 21 0 25 -5 25 -30 0 -32 -11 -38 -32 -17 -18 18 -48 28 -48 17 0 -6
-7 -10 -16 -10 -17 0 -64 -44 -64 -59 0 -5 -15 -14 -32 -21 -67 -25 -120 -53
-125 -66 -3 -8 -16 -14 -28 -14 -13 0 -25 -3 -27 -7 -5 -13 -81 -68 -110 -81
-17 -7 -28 -19 -28 -32 0 -11 -2 -20 -5 -20 -11 0 -45 36 -45 47 0 8 -12 18
-27 24 -15 6 -31 16 -35 22 -5 9 -17 7 -43 -7 -26 -14 -35 -26 -35 -45 0 -20
-2 -23 -10 -11 -7 11 -10 7 -10 -19 0 -32 1 -33 34 -29 25 3 37 -1 46 -15 6
-10 9 -22 6 -25 -3 -3 -6 0 -6 6 0 7 -9 12 -20 12 -11 0 -20 -4 -20 -10 0 -17
-22 -11 -48 13 -17 14 -23 17 -20 7 3 -9 -1 -25 -9 -35 -15 -20 -15 -20 -10 2
3 13 -1 24 -10 27 -8 3 -11 1 -8 -4 3 -6 1 -10 -5 -10 -6 0 -8 -4 -5 -10 3 -5
2 -10 -3 -10 -10 0 -45 -73 -45 -95 0 -8 -4 -12 -9 -9 -4 3 -8 -3 -8 -13 0
-11 -4 -23 -9 -28 -9 -9 -88 -180 -241 -520 -37 -82 -94 -206 -125 -275 -87
-190 -290 -686 -324 -792 -7 -21 -18 -38 -24 -38 -17 0 -207 -29 -234 -35 -21
-5 -25 4 -58 112 -60 195 -199 609 -253 753 -27 74 -64 176 -82 225 -17 50
-38 104 -45 120 -7 17 -17 42 -20 58 -4 15 -11 27 -17 27 -5 0 -6 5 -3 10 4 6
3 19 -1 28 -9 20 -9 20 -18 55 -5 15 -13 27 -18 27 -6 0 -8 7 -4 15 3 8 2 15
-2 16 -4 0 -15 2 -24 4 -10 2 -18 -1 -18 -7 0 -6 -7 -8 -15 -4 -9 3 -15 0 -15
-8 0 -7 -11 -18 -25 -24 -31 -14 -117 -16 -96 -3 19 12 3 34 -21 28 -11 -3
-31 -1 -44 5 -17 8 -27 8 -37 0 -12 -10 -91 -18 -112 -11 -15 5 -55 -11 -55
-22 0 -5 -17 -9 -37 -9 -21 -1 -49 -7 -63 -15 -14 -8 -42 -14 -62 -15 -44 0
-45 -3 -17 -31 29 -29 19 -43 -37 -51 -27 -4 -50 -11 -51 -15 -11 -28 -23 -37
-34 -26 -10 10 -17 7 -31 -15 -10 -15 -18 -24 -18 -19 0 4 -17 -10 -38 -30
-22 -21 -37 -41 -35 -45 2 -3 -5 -5 -14 -3 -10 1 -23 -2 -30 -7 -16 -13 -120
-37 -163 -38 -19 0 -41 -4 -49 -9 -23 -15 -35 -404 -22 -696 5 -131 9 -240 7
-242 -4 -5 -254 -51 -397 -73 -73 -11 -161 -25 -194 -30 -338 -57 -633 -50
-907 20 -494 125 -798 430 -902 903 -25 117 -37 253 -36 422 2 256 11 229 -77
233 -59 2 -73 0 -73 -12 0 -8 10 -17 22 -19 14 -3 8 -5 -16 -6 -30 -1 -37 2
-32 14 4 11 -2 15 -22 15 -16 0 -33 -5 -39 -11 -14 -14 -59 -7 -55 9 3 16 -15
16 -22 0 -3 -9 -9 -7 -21 7 -30 37 -189 37 -235 -1 -17 -13 -98 -16 -106 -3
-3 5 -22 6 -42 3 -20 -3 -57 -7 -82 -8 -40 -1 -45 -4 -43 -24 2 -13 -4 -25
-12 -28 -8 -4 -15 -15 -15 -25 0 -18 -5 -19 -52 -13 -29 4 -57 10 -63 14 -5 4
-39 11 -74 14 -56 6 -66 5 -86 -14 -12 -12 -31 -21 -41 -20 -11 1 -49 2 -86 3
-37 2 -70 6 -74 9 -9 10 -84 -32 -84 -47 0 -7 -13 -15 -29 -18 -16 -3 -35 -13
-43 -20 -9 -9 -25 -13 -43 -9 -24 4 -27 2 -21 -13 9 -23 -45 -75 -79 -75 -14
0 -25 -4 -25 -9 0 -5 -9 -13 -20 -16 -11 -4 -18 -10 -15 -15 8 -14 -136 -62
-150 -50 -9 7 -21 6 -41 -4 -16 -8 -37 -17 -47 -20 -9 -3 -17 -15 -17 -26 0
-11 -7 -20 -15 -20 -8 0 -15 -6 -15 -14 0 -8 -16 -16 -38 -20 -22 -3 -51 -15
-65 -26 -35 -28 -146 -28 -224 0 -71 25 -77 25 -70 0 3 -11 1 -22 -3 -25 -5
-3 -7 -24 -5 -48 3 -26 1 -37 -5 -27 -6 11 -12 11 -23 2 -11 -9 -14 -9 -14 3
0 8 5 11 10 8 6 -4 8 1 4 11 -4 10 -7 22 -7 27 0 5 -7 9 -15 9 -17 0 -13 27
16 119 13 44 21 55 36 53 17 -3 17 -3 0 10 -17 13 -16 21 28 163 64 208 168
500 220 620 7 17 39 91 70 165 291 688 726 1385 1244 1990 957 1118 2261 1971
3641 2383 258 78 420 119 660 171 488 104 971 157 1585 174 39 1 169 -3 290
-8z m5985 -3701 c0 -5 -7 -9 -15 -9 -15 0 -20 12 -9 23 8 8 24 -1 24 -14z
m433 -44 c-3 -9 -8 -14 -10 -11 -3 3 -2 9 2 15 9 16 15 13 8 -4z m35 -50 c-3
-3 -9 2 -12 12 -6 14 -5 15 5 6 7 -7 10 -15 7 -18z m-15 -70 c-3 -9 -8 -14
-10 -11 -3 3 -2 9 2 15 9 16 15 13 8 -4z m-545 -7 c18 -18 15 -28 -8 -28 -13
0 -20 7 -20 20 0 23 10 26 28 8z m610 -43 c-3 -3 -9 2 -12 12 -6 14 -5 15 5 6
7 -7 10 -15 7 -18z m-438 0 c0 -1 -11 -5 -24 -7 -16 -3 -23 -1 -19 7 3 10 43
10 43 0z m464 0 c3 -8 1 -15 -4 -15 -6 0 -10 7 -10 15 0 8 2 15 4 15 2 0 6 -7
10 -15z m8 -39 c7 4 8 2 4 -5 -9 -13 -26 -5 -25 12 0 9 2 8 6 -1 2 -6 10 -9
15 -6z m43 -55 c3 -5 2 -12 -3 -15 -5 -3 -9 1 -9 9 0 17 3 19 12 6z m-1854
-194 c-10 -9 -11 -8 -5 6 3 10 9 15 12 12 3 -3 0 -11 -7 -18z m-1474 -203 c-3
-3 -12 -4 -19 -1 -8 3 -5 6 6 6 11 1 17 -2 13 -5z m-267 -8 c0 -2 -7 -7 -16
-10 -8 -3 -12 -2 -9 4 6 10 25 14 25 6z m110 -16 c0 -5 -10 -10 -22 -9 -22 0
-22 1 -3 9 11 5 21 9 23 9 1 1 2 -3 2 -9z m-403 -76 c-3 -3 -12 -4 -19 -1 -8
3 -5 6 6 6 11 1 17 -2 13 -5z m159 -1 c-10 -11 -37 -12 -30 -2 3 5 12 9 21 9
9 0 13 -3 9 -7z m44 -25 c0 -5 -7 -8 -15 -8 -15 0 -20 21 -8 33 7 7 23 -11 23
-25z m2910 10 c11 -12 20 -27 20 -34 0 -29 -118 -231 -179 -307 -295 -366
-731 -647 -1186 -767 -194 -50 -518 -89 -632 -75 l-53 6 46 90 c161 322 429
598 764 788 65 37 244 121 320 150 47 18 94 37 105 41 91 39 292 92 415 109
117 17 128 18 247 20 104 1 114 -1 133 -21z m-2738 -3 c146 14 361 2 498 -29
60 -13 204 -57 240 -73 8 -3 17 -7 20 -8 20 -6 106 -51 108 -57 2 -5 8 -8 14
-8 33 0 307 -204 308 -230 0 -8 -12 -25 -27 -37 -15 -13 -50 -45 -78 -71 -106
-98 -527 -422 -549 -422 -3 0 -6 48 -6 108 l0 107 -79 -85 c-43 -47 -81 -83
-84 -80 -5 5 -26 77 -47 158 -4 19 -10 35 -12 37 -2 3 -26 -38 -52 -90 -26
-52 -51 -95 -55 -95 -4 0 -31 41 -61 90 -62 102 -54 106 -86 -43 -9 -43 -20
-77 -24 -75 -5 2 -30 23 -57 48 -27 25 -61 56 -77 70 l-28 25 7 -107 c4 -60 4
-108 -1 -108 -5 0 -22 8 -39 18 -70 43 -147 83 -151 79 -2 -2 11 -47 31 -100
19 -54 31 -97 27 -97 -4 0 -55 13 -114 29 -59 15 -105 23 -101 17 3 -6 30 -46
60 -88 29 -43 53 -80 53 -83 0 -4 -52 -3 -115 1 -66 4 -115 3 -115 -2 1 -5 37
-38 80 -74 44 -36 80 -67 80 -70 0 -3 -46 -14 -102 -24 -57 -10 -110 -21 -118
-24 -9 -4 28 -26 94 -57 l108 -51 -106 -49 c-58 -26 -106 -51 -106 -54 0 -3
44 -15 98 -25 53 -10 103 -22 110 -25 8 -5 -17 -31 -75 -77 l-88 -69 118 -3
118 -3 -66 -85 c-37 -47 -65 -87 -62 -90 2 -3 45 6 95 21 97 27 122 30 122 16
0 -5 -18 -48 -39 -97 -22 -49 -38 -90 -36 -92 2 -2 47 19 100 48 53 29 99 50
101 47 3 -3 0 -49 -6 -102 -7 -52 -11 -98 -8 -100 2 -3 39 27 82 65 43 39 82
70 86 70 8 0 14 -37 26 -147 4 -35 9 -63 13 -63 3 0 32 41 65 90 32 50 62 90
66 90 4 0 24 -41 45 -90 21 -50 42 -93 46 -96 4 -2 22 41 40 96 18 55 36 100
40 100 4 0 38 -38 75 -85 l69 -85 7 52 c3 29 6 77 7 106 1 35 5 52 14 52 25 0
240 -130 331 -199 106 -81 326 -287 326 -305 0 -16 -88 -86 -185 -148 -443
-286 -1002 -316 -1473 -79 -140 70 -261 159 -382 281 -256 255 -396 552 -431
916 -19 198 6 421 68 609 66 201 192 409 340 561 47 49 86 92 85 97 -1 4 2 6
7 5 10 -3 90 54 91 65 0 4 5 7 11 7 5 0 27 13 47 29 45 36 204 119 289 152 34
13 59 28 56 33 -4 5 -1 6 6 2 16 -10 64 2 56 14 -3 5 -1 11 4 14 5 4 12 2 16
-4 4 -6 11 -7 17 -4 7 4 6 9 -2 14 -6 4 12 5 41 2 40 -4 50 -2 44 8 -6 10 1
11 30 6 37 -7 38 -7 24 11 -13 16 -12 17 3 5 12 -10 35 -12 80 -7z m-275 -11
c-3 -3 -12 -4 -19 -1 -8 3 -5 6 6 6 11 1 17 -2 13 -5z m-1911 -380 c2 -12 -1
-13 -12 -3 -7 6 -11 16 -8 21 7 11 17 3 20 -18z m-6263 -421 c-7 -2 -21 -2
-30 0 -10 3 -4 5 12 5 17 0 24 -2 18 -5z m-700 -37 c3 -8 18 -16 34 -18 23 -2
29 -8 31 -35 2 -20 -1 -33 -8 -33 -7 0 -9 8 -5 21 7 20 5 21 -26 15 -69 -14
-102 -15 -120 -5 -16 8 -17 13 -6 32 6 12 17 25 22 29 18 13 73 9 78 -6z
m11347 -310 c341 -38 613 -114 820 -228 162 -89 161 -113 -10 -215 -301 -180
-822 -284 -1218 -243 -333 35 -709 155 -940 303 l-54 34 94 60 c235 152 498
250 778 288 128 17 377 18 530 1z m-11255 -147 c5 -5 28 -9 52 -9 40 0 43 -2
43 -28 0 -25 -5 -29 -42 -38 -38 -8 -47 -7 -80 16 -28 19 -38 32 -38 53 0 25
3 27 28 21 15 -4 31 -11 37 -15z m-1805 -45 c0 -8 -4 -14 -10 -14 -5 0 -10 9
-10 21 0 11 5 17 10 14 6 -3 10 -13 10 -21z m-10 -44 c2 19 4 20 7 7 3 -10 2
-26 -2 -35 -5 -14 -7 -14 -15 -2 -6 8 -9 24 -9 35 1 16 2 16 9 -5 l8 -25 2 25z
m47 -12 c-3 -8 -6 -5 -6 6 -1 11 2 17 5 13 3 -3 4 -12 1 -19z m-52 -58 c7 0
15 -9 18 -21 4 -16 9 -19 24 -11 21 12 73 4 73 -10 0 -6 -14 -8 -35 -5 -19 3
-37 1 -41 -4 -3 -6 -16 -9 -27 -8 -37 2 -45 0 -50 -18 -2 -10 -4 -3 -3 15 1
21 5 31 13 28 7 -3 15 -1 18 4 4 6 -1 10 -9 10 -11 0 -15 7 -12 23 6 32 8 34
13 15 2 -10 10 -18 18 -18z m55 7 c11 -5 9 -6 -4 -4 -11 1 -21 9 -23 17 -3 10
-2 11 4 4 4 -6 15 -14 23 -17z m1880 -294 c37 -21 66 -41 130 -91 3 -2 8 -45
11 -95 3 -51 9 -99 13 -108 11 -24 -34 -82 -73 -93 -42 -12 -226 7 -296 30
-77 26 -80 31 -79 127 1 70 5 91 24 123 50 83 69 101 118 114 26 7 51 17 57
22 11 10 38 2 95 -29z m10115 -97 c363 -59 661 -177 944 -374 272 -189 518
-450 622 -659 60 -122 45 -143 -101 -143 -348 0 -854 166 -1208 396 -212 138
-402 324 -540 529 -39 59 -152 260 -152 272 0 11 342 -6 435 -21z m-5335 -786
c815 -15 1310 -37 1334 -60 17 -17 -213 -33 -754 -52 -501 -18 -3568 -18
-4090 -1 -553 19 -695 31 -667 60 20 20 643 46 1352 56 491 7 2350 5 2825 -3z
m1520 -482 c12 -49 137 -434 180 -553 16 -44 56 -156 89 -250 78 -225 92 -258
109 -269 9 -5 11 -11 4 -15 -11 -7 50 -207 69 -226 6 -5 55 -10 109 -10 61 0
103 -4 110 -11 13 -13 -53 -26 -137 -26 -26 0 -51 -4 -54 -10 -9 -15 42 -128
58 -128 7 0 13 -5 13 -11 0 -5 -4 -7 -10 -4 -6 3 -7 -1 -4 -9 3 -9 10 -13 15
-10 5 3 9 0 9 -6 0 -6 5 -8 12 -4 7 4 8 3 4 -5 -4 -6 -12 -8 -18 -5 -15 10 7
-30 26 -45 18 -15 151 -40 209 -41 42 0 44 -7 19 -63 l-17 -37 -391 -3 -391
-2 10 28 c12 37 53 61 136 83 36 10 67 18 69 19 8 6 -22 62 -38 73 -13 8 -96
14 -257 18 -131 3 -252 9 -269 14 -18 4 -52 6 -76 3 -43 -5 -78 12 -78 37 0
16 72 23 107 11 24 -9 38 -10 47 -2 9 7 19 6 34 -5 17 -12 61 -16 194 -19 95
-3 199 -6 231 -7 31 0 59 1 62 4 3 3 -1 24 -10 46 l-16 40 -62 -3 c-33 -2 -70
1 -81 5 -20 8 -20 8 4 18 15 5 34 6 48 1 14 -5 21 -5 17 0 -3 5 6 18 20 29 32
25 31 33 -6 131 l-31 81 -181 0 c-100 0 -237 -3 -304 -7 l-121 -6 -26 -56
c-13 -31 -39 -92 -56 -136 -17 -44 -35 -89 -40 -100 -13 -27 -41 -105 -47
-131 -9 -39 31 -52 226 -68 35 -3 66 -7 68 -10 7 -6 -55 -18 -65 -12 -5 3 -19
-12 -31 -34 l-22 -39 -290 -1 c-176 0 -297 -4 -309 -10 -14 -7 -22 -6 -33 5
-13 13 -16 13 -21 -1 -4 -11 -14 -13 -41 -8 -19 3 -35 2 -35 -2 0 -5 -32 -10
-70 -12 -52 -2 -70 1 -70 10 0 8 -5 6 -11 -4 -5 -9 -15 -15 -22 -12 -8 3 -33
-34 -67 -98 -46 -86 -71 -118 -147 -194 -51 -50 -93 -94 -93 -97 0 -7 22 -3
39 7 10 6 12 5 7 -2 -4 -7 -2 -12 4 -12 6 0 8 -4 5 -10 -4 -6 8 -10 29 -10 19
0 37 -4 41 -9 6 -11 -113 -26 -150 -19 -14 3 -28 2 -30 -3 -3 -4 -15 -6 -27
-4 -11 3 -47 -10 -79 -28 l-59 -32 -29 31 c-26 28 -37 32 -88 34 -178 5 -228
13 -174 27 17 4 19 8 9 14 -14 9 -15 9 72 14 25 1 64 5 88 9 29 5 47 4 57 -4
11 -9 15 -10 15 -1 0 7 4 9 10 6 33 -21 175 131 227 244 45 95 52 137 27 156
-18 13 -18 14 -1 15 28 0 39 46 43 175 2 66 6 131 9 143 3 13 3 32 0 43 -6 18
-16 19 -157 16 -108 -1 -152 1 -155 10 -6 17 27 24 135 27 54 2 108 8 119 15
12 6 32 11 44 11 l22 0 -7 522 c-4 287 -10 526 -14 532 -4 6 -5 35 -3 64 3 51
2 53 -32 67 -25 10 -168 35 -204 35 -1 0 5 19 14 43 l15 42 357 0 c196 0 368
4 384 8 24 7 27 5 27 -17 0 -15 -11 -33 -26 -45 -32 -25 -143 -61 -188 -61
l-33 0 -2 -197 c-1 -109 -4 -213 -7 -231 -9 -48 4 -122 22 -122 8 0 14 -5 14
-10 0 -6 9 -14 21 -18 20 -8 19 -10 -14 -32 -45 -31 -47 -43 -39 -250 l7 -165
65 -3 c94 -4 98 -10 7 -11 l-78 -1 1 -157 c0 -87 -4 -189 -9 -228 -17 -120
-19 -163 -9 -177 8 -10 9 -9 5 3 -4 13 1 15 21 12 35 -5 32 -5 141 1 80 4 104
9 156 36 40 20 83 34 121 37 l59 5 82 167 c80 160 143 296 143 305 0 2 -13 3
-30 2 -16 -1 -30 2 -30 7 0 4 10 8 23 7 47 -4 41 -12 120 160 19 42 45 100 57
130 12 30 26 63 31 72 12 24 11 30 -3 23 -7 -4 -3 2 9 12 12 10 42 65 66 123
25 58 82 191 127 295 45 105 91 217 102 250 11 33 26 65 32 72 6 7 45 16 86
21 41 5 78 10 82 11 4 0 12 -18 18 -41z m-8325 -58 c4 -6 -10 -10 -35 -10 -25
0 -39 4 -35 10 3 6 19 10 35 10 16 0 32 -4 35 -10z m6393 -145 c37 -9 25 -22
-26 -28 -56 -7 -202 3 -202 13 0 21 159 32 228 15z m-1217 -14 c6 10 9 7 9
-10 0 -20 -2 -21 -15 -11 -8 7 -15 18 -14 24 0 6 3 5 6 -3 5 -11 7 -11 14 0z
m749 -45 c0 -2 3 -11 6 -20 5 -13 -2 -16 -40 -16 -39 0 -46 -3 -46 -20 0 -13
-7 -20 -19 -20 -29 0 -35 30 -11 54 12 13 20 16 20 8 0 -10 6 -9 22 2 20 14
68 22 68 12z m-57 -151 c7 -18 -6 -27 -27 -19 -12 5 -13 9 -3 20 16 17 24 17
30 -1z m465 -251 c34 -10 26 -24 -13 -24 -33 0 -43 8 -28 23 8 8 12 8 41 1z
m3685 -221 c-7 -2 -21 -2 -30 0 -10 3 -4 5 12 5 17 0 24 -2 18 -5z m-2655
-139 c155 -5 210 -10 202 -18 -13 -13 -458 -11 -535 3 l-50 9 45 1 c35 1 42 4
30 12 -11 8 0 9 40 5 30 -3 151 -8 268 -12z m2546 -14 c-14 -14 -169 -25 -228
-16 -86 13 -36 26 102 26 94 0 133 -3 126 -10z m3386 0 c0 -11 -234 -19 -368
-13 -69 4 -117 10 -110 14 16 10 478 8 478 -1z m-5730 -102 c0 -4 -6 -8 -14
-8 -8 0 -17 4 -20 8 -2 4 4 8 15 8 10 0 19 -4 19 -8z m6125 -48 c4 -6 -5 -10
-20 -10 -15 0 -24 4 -20 10 3 6 12 10 20 10 8 0 17 -4 20 -10z m158 3 c-7 -2
-19 -2 -25 0 -7 3 -2 5 12 5 14 0 19 -2 13 -5z m-366 -9 c-3 -3 -12 -4 -19 -1
-8 3 -5 6 6 6 11 1 17 -2 13 -5z m-4232 -44 c3 -5 -1 -10 -10 -10 -9 0 -13 5
-10 10 3 6 8 10 10 10 2 0 7 -4 10 -10z m154 -6 c2 -2 -14 -4 -37 -4 -23 0
-42 5 -42 10 0 10 67 4 79 -6z m151 6 c0 -6 -23 -9 -52 -9 -45 1 -49 2 -23 9
44 11 75 11 75 0z m-662 -7 c-15 -2 -42 -2 -60 0 -18 2 -6 4 27 4 33 0 48 -2
33 -4z m240 0 c-21 -2 -57 -2 -80 0 -24 2 -7 4 37 4 44 0 63 -2 43 -4z m2531
-98 c14 -15 -28 -19 -192 -19 -188 0 -261 8 -222 25 19 9 405 3 414 -6z m1568
-51 c-3 -3 -12 -4 -19 -1 -8 3 -5 6 6 6 11 1 17 -2 13 -5z m-6944 -112 c-3 -7
-12 -11 -20 -8 -8 3 -24 6 -36 7 -20 1 -20 2 3 8 38 11 58 8 53 -7z m7025 9
c10 -6 6 -10 -13 -13 -33 -7 -67 1 -59 13 7 11 55 11 72 0z m-6138 -107 c0 -2
-21 -4 -47 -3 -37 1 -42 3 -23 8 24 7 70 3 70 -5z m2745 -44 c-3 -5 -32 -10
-63 -10 -41 0 -53 3 -42 10 20 13 113 13 105 0z m-1605 -150 l75 -3 -50 -8
c-113 -18 -164 -27 -183 -34 -19 -5 -136 13 -202 32 -46 14 149 21 360 13z
m603 -7 c3 -5 1 -18 -4 -30 -6 -17 -16 -23 -39 -23 -25 0 -30 4 -30 23 0 13 3
27 7 30 9 9 61 9 66 0z m297 -40 c61 -6 63 -7 30 -14 -34 -9 -267 -2 -282 7
-34 21 76 24 252 7z m2760 -3 l35 -2 -30 -8 c-39 -10 -415 -12 -485 -2 -55 7
-55 7 35 12 84 5 367 5 445 0z m118 -7 c-16 -2 -40 -2 -55 0 -16 2 -3 4 27 4
30 0 43 -2 28 -4z m-6338 -133 c47 -5 121 -12 165 -15 74 -6 112 -14 69 -16
-10 0 -35 -3 -54 -5 -70 -10 -386 -14 -546 -6 -155 7 -202 18 -180 39 20 20
370 22 546 3z m2405 -15 c39 -1 93 -3 120 -4 l50 -4 -65 -7 c-89 -9 -666 -7
-676 3 -24 24 31 28 261 21 132 -5 272 -9 310 -9z m-8038 -20 c2 -6 -4 -20
-13 -30 -15 -19 -15 -19 -10 -1 5 15 4 17 -8 7 -11 -9 -15 -8 -20 5 -3 8 -6
20 -6 25 0 13 52 7 57 -6z m14647 -31 c21 -8 21 -40 0 -48 -17 -6 -26 -2 -56
23 -18 15 -18 16 4 23 32 9 34 9 52 2z m-254 -43 c0 -15 -73 -23 -103 -12 -15
6 -27 13 -27 16 0 3 29 5 65 5 36 0 65 -4 65 -9z m-6069 -10 c-18 -12 -304
-11 -322 0 -8 5 60 9 161 9 107 0 170 -4 161 -9z m195 -4 c4 -4 -16 -7 -44 -7
-28 0 -54 5 -58 11 -7 12 90 8 102 -4z m-1456 -14 c24 -7 23 -8 -10 -14 l-35
-6 39 -2 c53 -1 37 -14 -22 -17 -26 -2 -91 -5 -144 -8 -64 -4 -99 -2 -104 5
-14 23 19 34 107 35 50 1 93 5 96 8 8 8 42 7 73 -1z m-4990 -38 c11 -13 8 -15
-13 -15 -19 0 -25 4 -21 15 4 8 10 15 14 15 4 0 13 -7 20 -15z m4515 -5 c3 -5
1 -10 -4 -10 -6 0 -11 5 -11 10 0 6 2 10 4 10 3 0 8 -4 11 -10z m4180 0 c-3
-5 -15 -10 -25 -10 -10 0 -22 5 -25 10 -4 6 7 10 25 10 18 0 29 -4 25 -10z
m-8615 -48 c38 -6 45 -10 44 -29 -1 -24 -52 -91 -70 -92 -6 -1 -21 -13 -35
-27 -50 -54 -103 -71 -228 -72 -62 -1 -118 1 -124 5 -5 3 1 14 14 24 21 16 24
26 24 90 l0 73 34 8 c71 19 271 30 341 20z m5071 -68 c24 -103 134 -438 314
-954 203 -584 228 -632 335 -644 30 -4 81 -10 112 -14 l57 -7 -20 -45 -19 -45
-385 0 c-257 0 -385 3 -385 10 0 37 82 85 173 100 20 3 37 12 37 19 0 18 -91
293 -129 394 l-32 82 -237 0 c-130 0 -267 -3 -304 -6 l-67 -7 -27 -61 c-14
-33 -35 -79 -45 -102 -51 -115 -98 -249 -99 -280 0 -29 32 -41 129 -49 44 -4
81 -10 81 -13 0 -4 -7 -24 -15 -47 l-16 -40 -309 0 c-339 0 -339 0 -279 56 34
32 112 59 169 59 l37 0 100 208 c115 236 237 500 329 712 34 80 88 203 119
274 31 71 54 135 51 143 -4 10 -32 13 -118 11 -207 -2 -312 2 -302 11 14 15
145 25 302 22 l142 -3 21 49 c11 26 32 82 46 123 13 41 30 80 36 86 7 7 43 14
81 17 37 4 71 9 74 12 15 14 28 -7 43 -71z m-4550 13 c-8 -8 -11 -7 -11 4 0
20 13 34 18 19 3 -7 -1 -17 -7 -23z m6229 8 c0 -11 -4 -25 -8 -31 -17 -26 -98
-53 -204 -69 l-38 -6 0 -49 c0 -28 5 -50 10 -50 7 0 6 -9 -2 -22 -10 -18 -14
-157 -16 -618 -2 -327 -1 -623 3 -658 9 -89 22 -96 189 -100 173 -5 329 10
393 38 27 11 68 40 90 63 36 37 113 172 142 250 11 28 19 31 70 21 39 -8 39
-15 1 -174 -66 -272 -86 -314 -155 -330 -20 -5 -134 -4 -253 2 -119 5 -396 8
-614 6 -427 -3 -425 -4 -375 46 26 26 89 50 162 63 l50 8 8 130 c4 72 5 373 3
670 -3 297 -5 566 -5 598 0 97 -27 118 -178 132 -80 8 -75 -1 -44 78 l9 22
381 0 c374 0 381 0 381 -20z m2185 16 c3 -5 8 -116 11 -245 l6 -236 -29 0
c-15 0 -38 -3 -50 -6 -24 -7 -30 9 -53 143 -16 96 -47 152 -101 180 -40 22
-54 23 -245 23 l-202 0 -7 -72 c-4 -40 -5 -361 -3 -713 2 -505 6 -645 16 -663
19 -33 52 -43 184 -56 l117 -11 -20 -45 -19 -45 -425 0 c-234 0 -425 3 -425 7
0 43 81 85 194 100 l83 10 7 123 c4 67 6 402 6 744 l-2 622 -161 -6 c-182 -7
-236 -17 -267 -50 l-21 -23 40 8 c30 5 38 4 34 -6 -3 -7 -21 -13 -43 -12 -21
0 -43 -3 -49 -6 -22 -14 -43 -70 -62 -165 -11 -52 -23 -98 -27 -102 -4 -3 -27
-4 -51 -1 l-44 4 7 122 c9 177 27 349 37 362 6 8 139 10 462 7 248 -2 540 0
647 5 272 13 448 14 455 3z m875 -12 c0 -29 -40 -58 -106 -79 -36 -11 -75 -20
-85 -20 -10 0 -19 -4 -19 -9 0 -14 261 -511 307 -583 13 -21 23 -40 23 -43 0
-2 14 -28 31 -56 l32 -50 75 128 c41 70 95 162 120 203 122 203 206 366 198
386 -7 18 -71 34 -138 34 -87 0 -90 3 -67 58 l20 47 319 0 c310 0 319 -1 322
-20 2 -12 15 -23 36 -29 50 -14 38 -26 -27 -26 -32 0 -74 -6 -93 -14 -18 -8
-62 -18 -96 -22 l-63 -7 -126 -191 c-281 -426 -299 -455 -374 -611 l-44 -90 0
-280 c0 -316 1 -322 71 -342 22 -7 85 -15 142 -19 56 -3 102 -8 102 -10 0 -2
-9 -23 -21 -46 l-21 -43 -424 0 c-233 0 -424 3 -424 7 0 43 81 85 194 100 l83
10 7 82 c3 44 6 164 6 264 0 201 -10 256 -59 341 l-27 46 -180 5 -179 6 173 2
c131 1 172 5 172 15 0 7 -19 46 -43 87 -23 41 -62 113 -86 160 -24 47 -67 123
-94 170 -28 47 -66 112 -85 145 -54 93 -109 163 -142 180 -16 8 -70 18 -120
22 -99 7 -100 8 -75 70 l15 38 385 0 c342 0 385 -2 385 -16z m-11929 -3 c1 -6
2 -22 3 -35 1 -27 -20 -24 221 -35 66 -4 152 -13 190 -22 83 -18 175 -33 228
-38 50 -4 74 -26 30 -26 -18 0 -34 -4 -37 -9 -7 -10 -62 -19 -171 -27 -44 -4
-88 -11 -99 -16 -24 -13 -83 -13 -99 1 -19 15 -90 23 -106 12 -12 -8 -12 -12
2 -25 8 -9 20 -16 26 -16 6 0 20 -5 30 -12 15 -9 17 -17 10 -34 -7 -21 -5 -24
25 -30 19 -3 65 0 103 7 99 19 198 16 223 -6 11 -10 17 -22 14 -26 -3 -5 3 -9
13 -10 16 0 16 -1 -2 -8 -11 -5 -131 -11 -268 -15 l-247 -8 -16 39 c-9 21 -17
50 -18 64 -1 14 -6 32 -12 40 -6 8 -19 43 -28 79 -10 36 -22 78 -27 94 -5 15
-6 32 -3 37 3 5 0 9 -5 9 -6 0 -11 6 -11 13 0 16 29 19 31 3z m2619 4 c0 -5
-2 -10 -4 -10 -3 0 -8 5 -11 10 -3 6 -1 10 4 10 6 0 11 -4 11 -10z m-2530 -10
c0 -8 -14 -14 -22 -8 -2 1 -13 -4 -25 -11 -20 -10 -23 -9 -23 9 0 16 6 20 35
20 19 0 35 -4 35 -10z m1197 -42 c-3 -8 -6 -5 -6 6 -1 11 2 17 5 13 3 -3 4
-12 1 -19z m11851 -5 c-10 -2 -26 -2 -35 0 -10 3 -2 5 17 5 19 0 27 -2 18 -5z
m-1884 -144 c11 -1 3 -5 -19 -11 -22 -5 -56 -6 -75 -2 -34 7 -34 7 -10 15 14
4 38 6 54 3 16 -2 38 -4 50 -5z m-3679 -9 c-3 -5 -15 -10 -26 -10 -10 0 -19 5
-19 10 0 6 12 10 26 10 14 0 23 -4 19 -10z m-5862 -29 c38 -15 35 -44 -7 -66
-33 -18 -35 -18 -92 3 -43 15 -80 20 -134 19 -135 -2 -510 15 -516 24 -3 5 12
9 33 10 21 0 103 7 183 14 161 14 491 12 533 -4z m12380 -428 c-7 -2 -19 -2
-25 0 -7 3 -2 5 12 5 14 0 19 -2 13 -5z m-9950 -38 c20 -4 35 -11 31 -16 -7
-12 -141 -12 -148 0 -11 17 55 26 117 16z m1217 -3895 c0 -5 -7 -10 -15 -10
-8 0 -15 5 -15 10 0 6 7 10 15 10 8 0 15 -4 15 -10z m-770 -10 c0 -5 -4 -10
-9 -10 -6 0 -13 5 -16 10 -3 6 1 10 9 10 9 0 16 -4 16 -10z"/>
<path d="M11282 12468 c-8 -8 -9 -15 0 -25 8 -10 8 -12 -4 -8 -15 6 -52 -67
-111 -219 -26 -68 -28 -82 -17 -100 12 -18 11 -19 -2 -8 -13 10 -18 3 -36 -50
-41 -128 -77 -281 -75 -318 2 -17 -33 -25 -42 -10 -3 5 -1 18 5 29 8 16 1 35
-44 105 -29 47 -57 82 -61 78 -5 -4 -5 -1 -1 6 4 6 -1 24 -12 40 -10 15 -35
57 -56 95 -22 40 -42 65 -48 61 -7 -4 -8 -2 -4 4 9 15 -34 73 -47 65 -6 -3 -7
-1 -3 5 9 15 -74 103 -125 131 -23 13 -39 19 -35 12 4 -6 3 -11 -2 -11 -13 0
-21 -21 -39 -95 -10 -41 -16 -141 -20 -314 -5 -223 -7 -258 -24 -284 -10 -17
-27 -31 -38 -32 -11 -1 -18 2 -15 7 7 11 -27 38 -39 31 -4 -2 -6 1 -5 8 2 6
-3 14 -11 17 -9 3 -11 0 -6 -9 5 -8 4 -11 -1 -6 -5 5 -9 14 -9 20 -1 7 -7 11
-14 9 -7 -1 -10 1 -7 6 7 12 -50 66 -62 58 -5 -3 -9 0 -8 8 1 12 -183 174
-223 195 -11 6 -26 17 -33 25 -19 19 -122 76 -136 76 -20 0 -15 -221 7 -349
19 -106 82 -311 122 -395 11 -22 19 -46 19 -53 0 -8 4 -12 8 -9 4 2 8 -3 9
-12 1 -9 4 -30 8 -47 4 -24 3 -26 -4 -10 -5 11 -28 40 -51 65 -23 25 -38 38
-34 30 7 -13 5 -13 -9 -1 -18 15 -23 26 -7 16 20 -12 9 8 -22 41 -18 19 -39
32 -46 29 -8 -3 -10 0 -6 7 5 8 2 9 -10 5 -9 -4 -15 -3 -12 2 7 11 -161 94
-174 86 -5 -3 -10 -3 -10 2 0 4 -15 14 -32 21 -18 7 -48 20 -67 28 -18 8 -42
12 -53 8 -12 -3 -18 -2 -15 3 6 9 -112 50 -158 56 -11 1 -26 6 -33 11 -16 9
-31 -2 -17 -12 6 -4 11 -20 13 -37 1 -16 6 -39 11 -50 5 -11 17 -42 26 -70 9
-27 23 -64 31 -82 8 -17 14 -34 14 -38 0 -3 30 -67 66 -141 64 -132 101 -182
167 -228 63 -44 61 -41 41 -57 -14 -11 -16 -11 -10 0 7 10 3 12 -13 6 -12 -3
-21 -2 -21 3 0 6 -24 16 -52 22 -29 6 -93 20 -143 31 -200 44 -544 89 -579 76
-13 -5 -13 -10 1 -39 26 -53 54 -89 64 -82 5 3 9 2 8 -3 -4 -21 2 -34 13 -27
7 4 8 3 4 -5 -10 -15 13 -43 27 -34 6 3 7 1 3 -6 -8 -13 52 -88 67 -83 5 1 6
-2 3 -7 -3 -5 2 -15 11 -22 14 -12 16 -12 8 0 -5 10 -4 12 3 7 7 -4 12 -15 12
-25 0 -9 18 -34 40 -56 39 -38 40 -38 56 -19 14 18 15 18 4 -4 -12 -25 -5 -46
12 -36 6 4 8 3 5 -3 -4 -6 22 -43 57 -84 36 -40 63 -76 61 -80 -2 -3 -91 -7
-197 -8 -247 -2 -368 -17 -498 -61 -14 -4 -33 -11 -43 -14 -16 -5 -15 -10 14
-46 20 -25 36 -37 43 -31 9 7 46 12 46 6 0 -2 -8 -9 -17 -16 -11 -10 -14 -10
-9 -1 4 6 3 12 -3 12 -5 0 -13 -5 -17 -12 -9 -14 92 -112 106 -103 6 4 9 3 8
-2 -2 -4 2 -9 7 -10 6 -2 10 2 10 7 0 6 3 10 8 10 4 0 10 0 14 0 4 0 2 -5 -5
-12 -7 -7 -12 -15 -12 -20 0 -6 164 -108 174 -108 2 0 32 -16 65 -34 34 -19
61 -32 61 -29 0 8 70 -71 70 -80 0 -8 -2 -9 -80 -27 -99 -23 -234 -70 -264
-91 -16 -12 -26 -17 -22 -10 9 14 5 14 -30 -3 -16 -7 -49 -22 -74 -32 -82 -35
-224 -109 -227 -120 -4 -11 67 -47 92 -47 8 0 15 -4 15 -8 0 -5 31 -18 60 -23
3 -1 10 -4 16 -8 29 -19 125 -48 135 -42 8 4 9 3 5 -4 -6 -9 20 -22 54 -27 3
0 38 -13 78 -29 40 -15 79 -25 88 -22 8 3 13 2 10 -3 -3 -5 14 -15 39 -22 25
-7 45 -17 45 -22 0 -4 4 -6 9 -2 5 3 13 0 17 -6 5 -8 3 -9 -6 -4 -10 6 -11 4
-6 -11 19 -46 17 -49 -61 -104 -43 -30 -82 -57 -88 -59 -5 -2 -23 -13 -38 -24
-23 -15 -26 -22 -15 -29 9 -6 6 -7 -9 -3 -15 4 -29 -1 -42 -14 -12 -12 -21
-19 -21 -16 0 9 -151 -105 -219 -164 l-63 -55 44 -13 c24 -7 54 -12 68 -12 14
0 43 -4 65 -10 22 -5 96 -15 165 -21 163 -14 360 -29 382 -30 10 0 22 -10 29
-21 6 -12 7 -19 1 -15 -11 7 -34 -49 -24 -59 4 -3 -1 -3 -11 1 -19 7 -24 -15
-7 -32 8 -8 5 -15 -7 -25 -16 -13 -17 -12 -5 3 10 12 10 18 1 23 -13 9 -179
-152 -179 -173 0 -7 -4 -11 -9 -8 -8 5 -55 -47 -115 -128 -23 -31 -26 -40 -15
-48 11 -8 11 -9 -2 -5 -12 4 -26 -9 -48 -44 -49 -79 -46 -83 57 -75 171 13
222 19 217 25 -2 4 9 6 24 3 41 -6 286 44 365 74 21 8 41 12 44 9 3 -2 0 -23
-7 -45 -6 -22 -9 -45 -6 -50 3 -6 3 -10 -2 -10 -4 0 -19 -23 -32 -52 -13 -28
-37 -74 -53 -101 -16 -27 -27 -52 -24 -54 2 -3 -4 -13 -15 -24 -10 -10 -19
-26 -19 -34 0 -8 -5 -15 -11 -15 -6 0 -8 -7 -5 -16 3 -8 2 -12 -3 -9 -5 3 -13
-5 -17 -17 -4 -13 -5 -23 -3 -23 2 0 -6 -13 -17 -27 -21 -27 -82 -223 -72
-233 8 -8 109 25 103 35 -3 4 3 6 13 3 16 -4 57 12 214 84 32 14 54 31 51 36
-3 6 -1 7 5 3 6 -4 66 20 134 54 67 33 132 60 145 60 32 0 39 -36 22 -123 -7
-40 -13 -91 -13 -114 -1 -22 -4 -39 -8 -36 -5 2 -8 -1 -8 -7 0 -6 -9 -62 -19
-123 -25 -143 -45 -310 -40 -326 3 -8 18 -2 46 16 23 15 40 30 37 34 -2 4 1
11 7 15 8 4 9 3 5 -4 -11 -18 10 -14 25 4 7 8 25 22 41 30 16 8 26 19 23 25
-4 5 -3 8 2 7 12 -4 93 64 87 74 -3 4 -10 5 -16 2 -7 -4 -8 -2 -4 5 6 9 11 9
23 0 12 -10 19 -7 44 22 16 19 29 30 29 25 0 -5 9 -1 20 9 16 15 18 21 7 34
-10 14 -10 14 4 4 13 -11 26 -2 85 57 62 63 80 90 52 82 -5 -1 -7 2 -3 7 3 6
11 8 18 5 8 -3 25 21 45 61 18 36 36 64 40 61 4 -2 3 -40 -4 -83 -20 -136 -17
-412 5 -543 23 -133 48 -223 61 -215 4 3 6 -4 3 -15 -8 -30 9 -24 48 18 60 63
89 103 83 113 -3 5 -9 7 -14 4 -5 -3 -11 -1 -14 4 -7 10 13 9 31 -2 14 -9 45
31 36 46 -3 6 -1 7 5 3 7 -4 63 73 146 197 74 112 142 211 150 220 9 8 16 22
16 31 0 8 3 17 8 20 4 2 9 -26 10 -62 2 -37 9 -92 17 -122 25 -106 58 -210 67
-210 5 0 7 -4 4 -9 -8 -12 59 -179 85 -215 12 -16 16 -26 10 -21 -7 4 4 -25
24 -64 19 -39 39 -71 44 -71 14 0 63 109 55 121 -4 7 -3 9 3 6 6 -4 30 43 58
116 26 67 51 132 56 145 5 13 7 27 4 32 -3 5 -1 10 3 12 5 1 21 41 36 88 15
47 38 104 51 127 16 28 19 43 12 46 -7 3 -2 4 10 4 12 -1 20 -3 18 -6 -7 -6
38 -37 48 -33 5 1 6 -2 3 -7 -4 -5 16 -45 43 -88 28 -43 67 -106 87 -140 32
-54 39 -61 53 -50 14 11 14 10 2 -5 -12 -16 -6 -28 49 -105 61 -85 147 -183
161 -183 11 0 41 69 34 80 -3 6 -2 10 3 10 17 0 32 157 36 380 4 193 20 350
35 350 3 0 16 -18 29 -40 13 -24 28 -38 34 -34 6 4 8 3 4 -4 -7 -12 209 -218
227 -216 7 1 18 3 25 5 8 2 20 -7 29 -21 12 -20 12 -21 0 -7 -8 9 -23 17 -33
17 -15 -1 -12 -6 14 -27 19 -15 48 -40 65 -55 18 -15 37 -28 43 -28 6 0 17 -7
24 -15 7 -8 17 -12 23 -8 6 3 7 1 3 -5 -4 -7 4 -17 21 -24 15 -7 37 -21 47
-30 29 -27 36 -8 36 110 0 177 -34 386 -79 487 -5 11 -12 33 -16 48 -3 15 -10
25 -15 22 -6 -4 -7 1 -3 11 5 13 3 15 -7 9 -9 -6 -11 -4 -6 4 11 17 -52 143
-66 135 -7 -4 -8 -2 -4 4 4 7 -10 41 -31 78 -21 36 -44 75 -50 87 -7 12 -18
21 -24 19 -6 -1 -8 2 -5 7 4 5 -1 16 -9 24 -8 9 -15 19 -15 22 0 4 -14 29 -32
56 -30 46 -32 48 -48 31 -10 -9 -15 -21 -12 -26 3 -5 -1 -6 -8 -1 -8 5 -18 1
-27 -10 -7 -11 -13 -15 -13 -11 0 7 -70 -42 -81 -57 -3 -5 -10 -9 -15 -9 -8 1
-110 -54 -124 -65 -2 -2 2 -8 10 -13 9 -6 10 -10 3 -10 -6 0 -14 4 -18 9 -3 5
-40 -6 -82 -26 -334 -154 -750 -187 -1133 -89 -52 13 -99 22 -105 19 -5 -4 -6
-2 -2 2 13 15 -105 53 -122 41 -11 -8 -13 -8 -8 1 8 13 -125 87 -137 76 -3 -4
-6 -1 -6 5 0 10 -38 28 -52 24 -5 -1 -8 2 -8 7 0 6 -37 35 -82 65 -46 31 -96
67 -112 81 -16 13 -33 22 -39 18 -5 -3 -7 -1 -4 4 7 12 -102 110 -116 105 -5
-1 -6 1 -3 6 6 10 -94 128 -105 125 -5 -2 -5 5 -2 14 4 11 3 14 -5 9 -7 -4
-12 -3 -12 3 0 17 -81 126 -92 123 -5 -1 -7 2 -3 8 3 5 -2 22 -13 38 -25 35
-104 200 -135 282 -28 75 -49 146 -72 245 -45 199 -44 512 2 703 8 34 12 70 8
80 -3 9 -3 13 2 9 6 -7 36 79 47 133 2 8 13 35 24 60 11 24 18 48 16 52 -3 4
-1 8 3 8 13 0 45 78 38 90 -4 6 -2 9 4 8 6 -2 24 20 39 47 15 28 29 52 32 55
7 7 29 43 37 60 4 8 9 17 12 20 21 18 51 72 45 82 -4 6 -3 8 4 4 6 -3 23 10
39 30 15 20 47 54 71 77 24 23 40 47 37 54 -3 8 0 11 6 7 6 -3 18 2 28 12 9
11 47 43 84 73 37 30 67 58 67 63 0 4 6 7 13 6 6 -2 11 3 9 10 -1 8 1 11 6 8
12 -7 84 43 77 54 -3 5 0 12 6 16 8 4 9 3 5 -4 -4 -7 -1 -12 8 -12 8 0 18 5
21 10 3 6 53 33 110 62 93 46 103 53 87 65 -15 11 -14 12 10 3 32 -11 92 6 81
23 -3 6 -1 7 5 3 9 -5 131 24 212 52 8 2 24 6 35 7 259 35 285 37 410 29 72
-4 149 -8 171 -9 23 -1 46 -5 50 -8 5 -2 36 -10 69 -17 33 -7 84 -18 114 -26
29 -7 58 -11 64 -7 5 3 7 2 4 -4 -4 -6 12 -16 35 -22 23 -7 71 -26 107 -43
101 -46 115 -51 131 -49 8 2 12 0 8 -4 -6 -7 73 -65 88 -65 3 0 21 -12 39 -26
20 -15 39 -23 46 -18 7 4 9 3 6 -3 -4 -6 0 -16 8 -23 8 -7 15 -9 15 -4 0 5 7
-2 16 -14 11 -16 22 -21 37 -17 12 2 16 2 9 -1 -10 -5 -10 -9 -1 -20 15 -19
33 -18 25 2 -3 8 -2 13 3 10 12 -8 43 42 35 56 -4 7 -3 8 4 4 11 -6 16 6 13
27 0 4 4 6 9 5 6 -2 16 7 23 19 6 11 35 59 63 105 28 45 62 102 74 125 23 42
23 43 4 65 -19 23 -19 23 1 6 20 -16 21 -16 33 3 7 11 10 24 7 29 -4 6 -1 10
5 10 6 0 8 5 5 10 -3 6 -2 10 3 10 14 0 62 154 78 250 21 131 16 429 -7 414
-5 -3 -6 2 -3 10 7 19 0 20 -27 5 -11 -5 -17 -14 -14 -19 3 -6 0 -8 -7 -5 -7
3 -20 0 -28 -5 -12 -8 -13 -12 -2 -19 11 -7 10 -9 -3 -14 -9 -4 -13 -3 -10 3
9 15 -21 12 -34 -3 -6 -8 -8 -17 -4 -21 4 -4 1 -5 -7 -1 -19 7 -93 -53 -84
-67 4 -6 3 -8 -3 -5 -13 8 -56 -37 -46 -48 5 -4 3 -5 -3 -2 -6 4 -49 -32 -95
-80 -46 -47 -94 -95 -106 -106 -12 -11 -20 -24 -17 -29 3 -5 0 -7 -8 -6 -7 2
-12 -1 -11 -7 1 -5 -10 -11 -23 -11 -14 -1 -31 -10 -39 -20 -7 -11 -17 -16
-21 -11 -4 4 -1 7 7 7 10 0 11 2 2 8 -12 8 -24 105 -43 372 -12 161 -35 316
-54 361 l-13 30 -49 -48 c-89 -89 -130 -145 -118 -164 4 -7 3 -9 -3 -6 -6 4
-18 -4 -27 -18 -9 -14 -13 -25 -9 -25 5 0 3 -4 -3 -8 -6 -4 -30 -43 -54 -87
-23 -44 -58 -104 -77 -133 -18 -29 -30 -58 -27 -64 4 -6 3 -8 -3 -5 -14 9 -65
-47 -58 -64 3 -8 -5 -19 -20 -26 -14 -6 -25 -7 -25 -2 0 5 10 14 23 19 12 5
17 9 11 9 -18 1 -73 128 -134 311 -35 103 -96 241 -105 233 -4 -5 -5 -3 -2 4
9 14 -2 45 -13 38 -5 -3 -12 0 -16 6 -4 8 -3 9 4 5 18 -11 15 0 -14 52 -33 60
-38 64 -52 50z m-681 -135 c12 -14 12 -15 0 -9 -8 5 -16 4 -21 -4 -5 -8 -9 -7
-13 5 -4 9 -3 13 3 10 6 -3 10 -1 10 4 0 15 5 14 21 -6z m1403 -27 c-3 -8 -13
-17 -22 -21 -13 -5 -13 -2 3 15 21 24 26 25 19 6z m-1416 -16 c-7 -10 -14 -17
-17 -15 -4 4 18 35 25 35 2 0 -1 -9 -8 -20z m1445 5 c-3 -9 -8 -14 -10 -11 -3
3 -2 9 2 15 9 16 15 13 8 -4z m-1375 -30 c-3 -3 -9 2 -12 12 -6 14 -5 15 5 6
7 -7 10 -15 7 -18z m536 -55 c-6 -6 -10 -3 -10 10 0 13 4 16 10 10 7 -7 7 -13
0 -20z m-479 -19 c-6 -5 -25 10 -25 20 0 5 6 4 14 -3 8 -7 12 -15 11 -17z
m1122 -143 c-3 -8 -6 -5 -6 6 -1 11 2 17 5 13 3 -3 4 -12 1 -19z m-20 -10 c-3
-8 -6 -5 -6 6 -1 11 2 17 5 13 3 -3 4 -12 1 -19z m-991 -23 c-3 -9 -11 -13
-16 -10 -8 5 -7 11 1 21 14 18 24 11 15 -11z m-876 1 c0 -2 -8 -10 -17 -17
-16 -13 -17 -12 -4 4 13 16 21 21 21 13z m2748 -14 c2 -7 -2 -10 -12 -6 -9 3
-16 11 -16 16 0 13 23 5 28 -10z m-2714 -24 c-5 -8 -1 -9 12 -5 19 7 19 7 0
-8 -23 -17 -42 -9 -25 11 14 17 23 19 13 2z m916 -83 c0 -5 -5 -3 -10 5 -5 8
-10 20 -10 25 0 6 5 3 10 -5 5 -8 10 -19 10 -25z m-827 18 c-7 -2 -19 -2 -25
0 -7 3 -2 5 12 5 14 0 19 -2 13 -5z m32 -22 c-9 -8 -36 -10 -30 -2 2 4 11 8
20 8 8 0 13 -3 10 -6z m1639 1 c3 -5 -1 -9 -9 -9 -8 0 -12 4 -9 9 3 4 7 8 9 8
2 0 6 -4 9 -8z m699 -66 c-10 -13 -20 -22 -22 -20 -4 4 29 44 36 44 2 0 -4
-11 -14 -24z m-777 -34 c-18 -16 -18 -16 -6 6 6 13 14 21 18 18 3 -4 -2 -14
-12 -24z m49 18 c3 -6 -1 -7 -9 -4 -18 7 -21 14 -7 14 6 0 13 -4 16 -10z
m-157 -25 c-3 -3 -9 2 -12 12 -6 14 -5 15 5 6 7 -7 10 -15 7 -18z m-1320 -26
c-3 -8 -7 -3 -11 10 -4 17 -3 21 5 13 5 -5 8 -16 6 -23z m46 -18 c3 -4 -3 -16
-13 -25 -13 -12 -21 -14 -26 -6 -3 6 -1 9 6 8 7 -2 14 3 15 10 3 25 8 29 18
13z m241 -55 c0 -19 -2 -33 -6 -30 -4 2 -7 20 -6 39 1 43 10 37 12 -9z m-975
-181 c0 -2 -6 -5 -13 -8 -8 -3 -14 1 -14 8 0 7 6 11 14 8 7 -3 13 -6 13 -8z
m143 -59 c16 -12 16 -14 2 -20 -9 -3 -13 -2 -10 3 3 6 -3 14 -12 20 -10 6 -13
10 -8 10 6 0 18 -6 28 -13z m87 -35 c0 -4 -6 -8 -14 -8 -8 0 -12 6 -9 14 5 13
23 9 23 -6z m2867 -26 c0 -8 -4 -12 -9 -9 -5 3 -6 10 -3 15 9 13 12 11 12 -6z
m-2611 -20 c20 -19 5 -19 -20 0 -11 9 -14 15 -7 15 7 0 19 -7 27 -15z m14 -39
c0 -2 -7 -7 -16 -10 -8 -3 -12 -2 -9 4 6 10 25 14 25 6z m-96 -64 c3 -5 -1 -9
-9 -9 -8 0 -12 4 -9 9 3 4 7 8 9 8 2 0 6 -4 9 -8z m67 -56 c5 3 9 0 9 -6 0
-15 -23 -7 -26 8 -1 7 0 8 3 2 2 -5 9 -8 14 -4z m1974 4 c-3 -5 -12 -10 -18
-10 -7 0 -6 4 3 10 19 12 23 12 15 0z m-1961 -38 c3 -5 -1 -9 -9 -9 -8 0 -12
4 -9 9 3 4 7 8 9 8 2 0 6 -4 9 -8z m-547 -44 c-3 -8 -6 -5 -6 6 -1 11 2 17 5
13 3 -3 4 -12 1 -19z m31 -13 c-3 -3 -9 2 -12 12 -6 14 -5 15 5 6 7 -7 10 -15
7 -18z m2996 7 c3 -5 -1 -9 -9 -9 -8 0 -12 4 -9 9 3 4 7 8 9 8 2 0 6 -4 9 -8z
m-284 -12 c0 -5 -2 -10 -4 -10 -3 0 -8 5 -11 10 -3 6 -1 10 4 10 6 0 11 -4 11
-10z m-2678 -47 c-6 -2 -9 -9 -6 -14 3 -6 12 -5 22 3 15 12 16 11 4 -4 -8 -9
-10 -23 -6 -30 4 -7 -4 -2 -17 12 -23 23 -20 41 6 39 6 0 4 -3 -3 -6z m788 -7
c0 -2 -7 -7 -16 -10 -8 -3 -12 -2 -9 4 6 10 25 14 25 6z m-1410 -65 c-8 -5
-19 -10 -25 -11 -5 -1 -17 -7 -25 -13 -13 -10 -13 -10 -1 5 7 10 17 16 21 13
5 -3 11 -1 15 5 3 5 12 10 18 10 7 0 6 -4 -3 -9z m701 -18 c13 -16 12 -17 -3
-4 -17 13 -22 21 -14 21 2 0 10 -8 17 -17z m2734 8 c3 -5 2 -12 -3 -15 -5 -3
-9 1 -9 9 0 17 3 19 12 6z m-2205 -74 c0 -2 -10 -12 -22 -23 l-23 -19 19 23
c18 21 26 27 26 19z m-468 -14 c-6 -2 -10 -9 -6 -14 3 -5 0 -9 -5 -9 -12 0
-14 13 -4 23 3 4 11 7 17 6 6 0 5 -3 -2 -6z m-695 -80 c0 -9 -4 -10 -14 -2 -7
6 -13 12 -13 14 0 1 6 2 13 2 8 0 14 -6 14 -14z m1037 -22 c3 -5 -2 -15 -12
-22 -15 -12 -16 -12 -5 2 7 9 10 19 6 22 -3 4 -4 7 0 7 3 0 8 -4 11 -9z m-97
-56 c0 -8 -4 -12 -9 -9 -5 3 -6 10 -3 15 9 13 12 11 12 -6z m-824 -10 c-3 -9
-8 -14 -10 -11 -3 3 -2 9 2 15 9 16 15 13 8 -4z m857 -19 c0 -2 -9 -6 -20 -9
-11 -3 -18 -1 -14 4 5 9 34 13 34 5z m-837 -39 c4 3 7 4 7 1 0 -3 -7 -11 -16
-18 -12 -11 -15 -11 -12 1 2 8 -3 13 -10 11 -8 -1 -11 2 -7 8 5 8 11 8 19 1 7
-6 16 -8 19 -4z m92 -96 c3 -5 0 -13 -6 -17 -7 -4 -9 -3 -5 4 3 5 0 13 -6 15
-9 4 -10 6 -1 6 6 1 14 -3 18 -8z m553 -71 c-7 -10 -14 -17 -17 -15 -4 4 18
35 25 35 2 0 -1 -9 -8 -20z m-1159 -177 c-7 -10 -14 -19 -15 -21 -1 -2 -4 4
-8 13 -3 9 -2 13 3 10 5 -3 12 -1 16 5 3 5 9 10 12 10 3 0 -1 -8 -8 -17z m54
-124 c-8 -8 -13 -7 -18 2 -6 8 -4 10 5 4 10 -6 12 -4 6 11 -6 15 -5 17 5 7 9
-10 10 -16 2 -24z m44 -25 c-3 -3 -12 -4 -19 -1 -8 3 -5 6 6 6 11 1 17 -2 13
-5z m906 -69 c-7 -21 -12 -19 -10 4 0 11 5 18 9 15 4 -3 5 -11 1 -19z m-723
-14 c0 -5 -7 -11 -14 -14 -10 -4 -13 -1 -9 9 6 15 23 19 23 5z m37 -327 c-3
-3 -12 -4 -19 -1 -8 3 -5 6 6 6 11 1 17 -2 13 -5z m-446 -192 c-7 -2 -18 1
-23 6 -8 8 -4 9 13 5 13 -4 18 -8 10 -11z m144 -32 c-3 -5 -12 -10 -18 -10 -7
0 -6 4 3 10 19 12 23 12 15 0z m471 -162 c4 -6 3 -8 -4 -4 -6 3 -15 -2 -21
-11 -6 -10 -11 -13 -11 -7 0 9 19 34 26 34 2 0 6 -5 10 -12z m-73 -208 c4 0 5
5 1 12 -5 7 -3 8 5 3 9 -5 10 -10 2 -18 -8 -8 -15 -6 -26 6 -8 9 -10 12 -3 7
7 -6 16 -10 21 -10z m-85 -65 c-3 -3 -9 2 -12 12 -6 14 -5 15 5 6 7 -7 10 -15
7 -18z m-243 -163 c-3 -3 -11 0 -18 7 -9 10 -8 11 6 5 10 -3 15 -9 12 -12z
m202 -128 c-3 -3 -12 -4 -19 -1 -8 3 -5 6 6 6 11 1 17 -2 13 -5z m877 -73 c-2
-3 -12 3 -22 13 -16 17 -16 18 5 5 12 -7 20 -15 17 -18z m67 -108 c13 -16 12
-17 -3 -4 -10 7 -18 15 -18 17 0 8 8 3 21 -13z m-657 -51 c3 -5 -1 -9 -9 -9
-8 0 -12 4 -9 9 3 4 7 8 9 8 2 0 6 -4 9 -8z m757 -89 c13 -16 12 -17 -3 -4
-10 7 -18 15 -18 17 0 8 8 3 21 -13z m59 -59 c0 -3 -7 -1 -15 6 -8 7 -15 17
-15 22 0 5 7 3 15 -6 8 -8 15 -18 15 -22z m80 -77 c0 -2 -8 -3 -18 -3 -10 0
-19 6 -19 13 0 8 6 9 19 2 10 -5 18 -11 18 -12z m56 -63 c1 -9 0 -13 -4 -10
-3 4 -7 14 -8 22 -1 9 0 13 4 10 3 -4 7 -14 8 -22z m-1212 -2 c3 -5 -1 -9 -9
-9 -8 0 -12 4 -9 9 3 4 7 8 9 8 2 0 6 -4 9 -8z m1246 -32 c0 -5 -5 -10 -11
-10 -5 0 -7 5 -4 10 3 6 8 10 11 10 2 0 4 -4 4 -10z m-736 -9 c3 -5 -2 -11
-12 -13 -11 -3 -19 0 -19 8 0 16 23 19 31 5z m-539 -49 c-3 -3 -11 0 -18 7 -9
10 -8 11 6 5 10 -3 15 -9 12 -12z m-30 -1 c3 -5 1 -12 -5 -16 -5 -3 -10 1 -10
9 0 18 6 21 15 7z m3409 -29 c3 -5 -1 -9 -9 -9 -8 0 -12 4 -9 9 3 4 7 8 9 8 2
0 6 -4 9 -8z m-14 -42 c6 0 8 5 4 12 -4 7 -3 8 5 4 13 -9 5 -26 -13 -26 -7 0
-21 7 -32 16 -18 15 -18 15 3 5 12 -6 27 -11 33 -11z m-1920 6 c0 -2 -7 -7
-16 -10 -8 -3 -12 -2 -9 4 6 10 25 14 25 6z m2125 -65 c3 -5 0 -13 -6 -17 -8
-5 -9 -3 -4 6 6 10 4 12 -9 7 -10 -4 -15 -3 -11 3 8 13 22 13 30 1z m-1954
-28 c13 -16 12 -17 -3 -4 -10 7 -18 15 -18 17 0 8 8 3 21 -13z m1619 7 c0 -5
-5 -10 -11 -10 -5 0 -7 5 -4 10 3 6 8 10 11 10 2 0 4 -4 4 -10z m362 -27 c-6
-2 -9 -10 -6 -15 4 -7 2 -8 -5 -4 -13 9 -5 26 12 25 9 0 8 -2 -1 -6z m-1871
-60 c13 -16 12 -17 -3 -4 -17 13 -22 21 -14 21 2 0 10 -8 17 -17z m1294 7 c3
-6 -1 -7 -9 -4 -18 7 -21 14 -7 14 6 0 13 -4 16 -10z m605 6 c0 -3 -4 -8 -10
-11 -5 -3 -10 -1 -10 4 0 6 5 11 10 11 6 0 10 -2 10 -4z m-1813 -22 c-3 -3
-12 -4 -19 -1 -8 3 -5 6 6 6 11 1 17 -2 13 -5z m-1277 -51 c0 -5 -5 -15 -10
-23 -7 -12 -9 -10 -7 8 1 19 17 33 17 15z m3136 -32 c0 -16 -4 -27 -7 -25 -4
2 -6 12 -4 22 2 9 4 20 4 25 1 4 3 7 5 7 2 0 3 -13 2 -29z m-2073 -175 c4 -10
1 -13 -8 -9 -8 3 -12 9 -9 14 7 12 11 11 17 -5z m-903 0 c0 -2 -8 -10 -17 -17
-16 -13 -17 -12 -4 4 13 16 21 21 21 13z m40 0 c0 -2 -7 -7 -16 -10 -8 -3 -12
-2 -9 4 6 10 25 14 25 6z m788 -70 c-10 -7 -14 -17 -10 -21 4 -5 1 -5 -7 0
-12 7 -11 10 4 22 24 17 36 17 13 -1z m2259 -53 c-3 -10 -5 -4 -5 12 0 17 2
24 5 18 2 -7 2 -21 0 -30z m-3337 10 c0 -16 -2 -16 -11 -3 -8 11 -12 12 -16 3
-2 -7 -9 -13 -15 -13 -6 0 -6 6 2 15 17 20 40 19 40 -2z m2885 -33 c-3 -5 -1
-10 6 -10 7 0 10 -3 6 -6 -9 -9 -28 6 -22 17 4 5 8 9 11 9 3 0 2 -4 -1 -10z
m-1871 -9 c3 -5 -2 -15 -11 -22 -12 -10 -14 -10 -9 -1 4 7 2 12 -6 12 -9 0 -9
3 2 10 18 12 18 12 24 1z m1930 -56 c-4 -8 -8 -15 -10 -15 -2 0 -4 7 -4 15 0
8 4 15 10 15 5 0 7 -7 4 -15z m34 -18 c-1 -2 4 -12 12 -23 14 -17 14 -18 -1
-6 -9 7 -21 11 -25 10 -5 -2 -9 1 -9 7 0 5 6 8 14 7 8 -2 10 1 5 10 -4 7 -4
10 0 6 4 -3 6 -8 4 -11z m-1224 -49 c-1 -13 -3 -25 -3 -27 -1 -2 -8 2 -17 10
-14 12 -14 14 2 26 10 7 18 13 19 13 1 0 1 -10 -1 -22z m-207 -55 c1 -24 0
-25 -6 -8 -7 17 -6 35 2 35 2 0 3 -12 4 -27z m1536 2 c-3 -9 -8 -14 -10 -11
-3 3 -2 9 2 15 9 16 15 13 8 -4z m-1540 -70 c-3 -9 -8 -14 -10 -11 -3 3 -2 9
2 15 9 16 15 13 8 -4z m1660 -16 c-8 -8 -13 -7 -18 2 -5 8 -4 10 3 5 7 -4 12
-2 12 5 0 7 3 9 7 6 4 -4 2 -12 -4 -18z m-1683 -55 c0 -8 -19 -13 -24 -6 -3 5
1 9 9 9 8 0 15 -2 15 -3z m935 -4 c3 -5 1 -10 -4 -10 -6 0 -11 5 -11 10 0 6 2
10 4 10 3 0 8 -4 11 -10z m795 0 c0 -5 -5 -10 -11 -10 -5 0 -7 5 -4 10 3 6 8
10 11 10 2 0 4 -4 4 -10z m-2625 -30 c3 -5 1 -10 -4 -10 -6 0 -11 5 -11 10 0
6 2 10 4 10 3 0 8 -4 11 -10z m-75 -71 c0 -6 -4 -7 -10 -4 -5 3 -10 11 -10 16
0 6 5 7 10 4 6 -3 10 -11 10 -16z m607 -41 c-3 -8 -6 -5 -6 6 -1 11 2 17 5 13
3 -3 4 -12 1 -19z m251 -10 c7 -7 12 -17 12 -22 0 -6 -5 -3 -11 7 -6 9 -14 15
-20 12 -5 -4 -9 -1 -9 4 0 14 13 14 28 -1z m1172 -74 c0 -8 -19 -13 -24 -6 -3
5 1 9 9 9 8 0 15 -2 15 -3z m70 -40 c0 -2 -9 0 -20 6 -11 6 -20 13 -20 16 0 2
9 0 20 -6 11 -6 20 -13 20 -16z m-67 1 c-3 -9 -8 -14 -10 -11 -3 3 -2 9 2 15
9 16 15 13 8 -4z m36 -18 c0 -9 -2 -8 -6 1 -2 6 -10 9 -15 6 -7 -4 -8 -2 -4 5
9 13 26 5 25 -12z m-1326 -32 c-3 -9 -8 -14 -10 -11 -3 3 -2 9 2 15 9 16 15
13 8 -4z m1392 -4 c-9 -8 -36 -10 -30 -2 2 4 11 8 20 8 8 0 13 -3 10 -6z
m-1478 -33 c-3 -8 -6 -5 -6 6 -1 11 2 17 5 13 3 -3 4 -12 1 -19z m63 -3 c0 -7
-30 -13 -34 -7 -3 4 4 9 15 9 10 1 19 0 19 -2z m1443 -56 c-8 -8 -13 -7 -18 2
-6 8 -4 10 5 4 10 -6 12 -4 6 11 -6 15 -5 17 5 7 9 -10 10 -16 2 -24z m-768
11 c-3 -5 -12 -10 -18 -10 -7 0 -6 4 3 10 19 12 23 12 15 0z m40 -6 c-13 -13
-14 -19 -4 -25 8 -4 10 -11 7 -14 -4 -4 -13 -1 -21 6 -13 12 -13 16 0 32 9 9
20 17 25 17 5 0 2 -7 -7 -16z"/>
<path d="M13999 12245 c-1 -3 -2 -10 -3 -16 -1 -15 -47 -38 -63 -32 -7 3 -13
-2 -13 -11 0 -9 -6 -13 -15 -10 -8 4 -13 9 -11 13 3 4 1 12 -3 19 -5 8 -15 4
-33 -13 -28 -26 -53 -31 -78 -15 -9 6 -17 5 -22 -3 -6 -9 -8 -8 -8 2 0 10 -8
7 -25 -9 l-25 -24 37 -30 c20 -17 46 -35 56 -41 11 -5 27 -30 37 -54 16 -43
18 -44 29 -23 9 18 21 22 56 22 32 0 43 4 39 13 -3 8 9 18 31 26 36 13 51 51
19 51 -8 0 -12 5 -9 10 3 6 27 10 52 10 49 0 113 18 113 32 0 5 10 -1 22 -12
13 -12 31 -19 41 -16 13 3 17 0 13 -9 -3 -8 -1 -17 4 -20 15 -9 17 19 4 51 -7
17 -12 33 -9 35 2 2 -7 4 -20 4 -13 0 -21 -3 -18 -7 2 -5 -1 -8 -6 -8 -6 0
-11 7 -11 15 0 11 -11 15 -36 15 -30 0 -34 2 -25 14 9 11 8 15 -5 20 -19 7
-113 8 -115 1z m121 -89 c0 -3 -9 -6 -20 -6 -19 0 -27 20 -14 33 6 6 34 -16
34 -27z"/>
<path d="M14216 12223 c-6 -14 -5 -15 5 -6 7 7 10 15 7 18 -3 3 -9 -2 -12 -12z"/>
<path d="M14269 12158 c-1 -2 -3 -16 -5 -33 l-3 -30 15 25 14 25 -5 -30 c-5
-26 -4 -27 4 -7 11 23 5 52 -10 52 -5 0 -10 -1 -10 -2z"/>
<path d="M13670 12140 c0 -5 5 -10 11 -10 5 0 7 5 4 10 -3 6 -8 10 -11 10 -2
0 -4 -4 -4 -10z"/>
<path d="M14160 12142 c0 -7 -9 -12 -20 -12 -11 0 -20 -4 -20 -10 0 -5 16 -9
35 -8 30 1 33 3 23 17 -7 9 -14 18 -15 20 -2 2 -3 -1 -3 -7z"/>
<path d="M14081 12094 c0 -11 3 -14 6 -6 3 7 2 16 -1 19 -3 4 -6 -2 -5 -13z"/>
<path d="M14090 12062 c0 -4 16 -6 35 -4 19 2 35 6 35 8 0 2 -16 4 -35 4 -19
0 -35 -4 -35 -8z"/>
<path d="M13915 11951 c-3 -5 -1 -12 5 -16 12 -7 30 2 30 16 0 12 -27 12 -35
0z"/>
<path d="M14397 11949 c7 -7 15 -10 18 -7 3 3 -2 9 -12 12 -14 6 -15 5 -6 -5z"/>
<path d="M14425 11920 c3 -5 8 -10 11 -10 2 0 4 5 4 10 0 6 -5 10 -11 10 -5 0
-7 -4 -4 -10z"/>
<path d="M12973 11783 c9 -9 19 -14 23 -11 10 10 -6 28 -24 28 -15 0 -15 -1 1
-17z"/>
<path d="M12931 11774 c0 -11 3 -14 6 -6 3 7 2 16 -1 19 -3 4 -6 -2 -5 -13z"/>
<path d="M11014 11762 c4 -7 2 -12 -3 -12 -6 0 -11 -4 -11 -10 0 -15 17 -12
23 5 4 8 1 17 -5 21 -7 4 -8 3 -4 -4z"/>
<path d="M12830 11640 c0 -5 5 -10 11 -10 5 0 7 5 4 10 -3 6 -8 10 -11 10 -2
0 -4 -4 -4 -10z"/>
<path d="M11138 11213 c7 -3 16 -2 19 1 4 3 -2 6 -13 5 -11 0 -14 -3 -6 -6z"/>
<path d="M11428 11193 c7 -3 16 -2 19 1 4 3 -2 6 -13 5 -11 0 -14 -3 -6 -6z"/>
<path d="M10856 11161 c-3 -5 2 -11 12 -13 11 -3 19 0 19 8 0 16 -23 19 -31 5z"/>
<path d="M9355 11070 c3 -5 8 -10 11 -10 2 0 4 5 4 10 0 6 -5 10 -11 10 -5 0
-7 -4 -4 -10z"/>
<path d="M8028 10753 c7 -3 16 -2 19 1 4 3 -2 6 -13 5 -11 0 -14 -3 -6 -6z"/>
<path d="M7940 10685 c0 -8 4 -15 10 -15 5 0 7 7 4 15 -4 8 -8 15 -10 15 -2 0
-4 -7 -4 -15z"/>
<path d="M7575 10569 c-4 -11 -4 -23 -1 -26 3 -4 6 1 6 11 0 9 4 14 10 11 6
-3 7 1 4 9 -8 21 -11 20 -19 -5z"/>
<path d="M7586 10535 c-9 -26 -7 -32 5 -12 6 10 9 21 6 23 -2 3 -7 -2 -11 -11z"/>
<path d="M7280 10518 c0 -4 9 -8 20 -8 25 0 36 -25 20 -45 -6 -7 -26 -15 -43
-17 -24 -2 -35 -10 -46 -33 -23 -49 -72 -99 -110 -112 -44 -15 -81 -17 -81 -3
0 6 -15 10 -34 10 -19 0 -38 5 -42 11 -3 6 -17 8 -30 5 -17 -5 -24 -2 -24 9 0
10 -8 14 -24 13 -14 -1 -24 -7 -23 -12 1 -6 -8 -12 -20 -14 -16 -2 -23 2 -23
12 0 9 -3 16 -6 16 -12 0 -33 -34 -34 -53 0 -16 -2 -16 -25 -1 -28 18 -33 13
-9 -10 8 -9 11 -16 5 -16 -6 0 -8 -7 -4 -16 6 -15 7 -15 20 1 7 10 16 16 19
12 4 -3 -1 -13 -10 -22 -18 -19 -21 -35 -6 -35 6 0 10 -6 8 -12 -3 -16 24
-108 32 -108 3 0 6 -9 7 -21 1 -11 13 -51 27 -87 14 -37 61 -175 105 -307 94
-281 115 -338 128 -342 5 -2 40 70 78 159 90 216 155 365 203 468 22 47 59
130 82 185 23 55 50 117 61 138 18 38 16 67 -4 67 -6 0 -7 3 -4 6 4 4 13 1 22
-6 13 -11 14 -10 9 5 -5 12 -4 16 3 12 6 -4 13 0 17 8 3 8 1 15 -4 15 -6 0
-10 5 -10 11 0 5 4 8 9 4 15 -8 31 29 31 69 0 34 -15 47 -34 29 -4 -4 -25 -8
-46 -9 -28 -2 -43 3 -49 14 -8 13 -26 17 -85 18 -42 0 -76 -4 -76 -8z"/>
<path d="M2715 10441 c-3 -5 -1 -12 5 -16 5 -3 10 1 10 9 0 18 -6 21 -15 7z"/>
<path d="M2430 10360 c0 -5 -12 -10 -27 -10 -14 0 -23 -3 -20 -7 11 -10 54
-12 84 -3 16 5 20 9 11 9 -10 1 -18 6 -18 11 0 6 -7 10 -15 10 -8 0 -15 -4
-15 -10z"/>
<path d="M2698 10338 c9 -9 15 -9 24 0 9 9 7 12 -12 12 -19 0 -21 -3 -12 -12z"/>
<path d="M6750 10338 c0 -9 5 -20 10 -23 13 -8 13 5 0 25 -8 13 -10 13 -10 -2z"/>
<path d="M3222 10240 c0 -19 2 -27 5 -17 2 9 2 25 0 35 -3 9 -5 1 -5 -18z"/>
<path d="M3218 10135 c-2 -33 -2 -64 0 -68 2 -5 6 -50 8 -100 2 -76 21 -195
38 -242 2 -5 7 -29 11 -52 4 -24 10 -43 14 -43 4 0 8 -12 9 -27 1 -15 5 -29
10 -32 4 -3 8 -13 10 -21 3 -14 23 -61 45 -107 5 -12 15 -20 20 -16 6 3 7 1 3
-5 -10 -16 39 -107 94 -177 110 -139 298 -257 490 -307 75 -20 110 -23 290
-23 207 0 315 12 393 42 l37 15 0 162 c-1 88 -5 247 -11 351 -13 239 -12 232
-23 242 -5 5 -6 2 -1 -6 6 -10 4 -12 -4 -7 -7 5 -10 14 -7 22 3 7 0 16 -6 20
-6 4 -8 3 -5 -3 9 -14 -16 -23 -34 -13 -7 5 -18 5 -25 -1 -8 -7 -11 -4 -10 8
0 11 -7 19 -21 21 -25 4 -66 -15 -59 -27 3 -4 -13 -8 -34 -9 -21 -2 -41 2 -45
8 -4 6 9 10 34 10 23 0 41 5 41 10 0 6 -19 10 -42 10 -28 0 -38 3 -29 9 8 5 9
11 3 15 -6 3 -14 2 -17 -4 -4 -6 -14 -8 -23 -6 -10 3 -24 1 -32 -4 -10 -6 -11
-10 -2 -10 6 0 12 -11 12 -25 0 -14 -6 -25 -12 -25 -7 0 -5 -5 5 -11 15 -9 15
-12 3 -25 -21 -20 -72 2 -54 23 8 10 8 17 0 25 -9 9 -12 8 -12 -6 0 -12 -5
-16 -16 -12 -8 3 -13 2 -9 -3 3 -5 -1 -12 -7 -14 -9 -4 -8 -6 2 -6 8 -1 -12
-15 -45 -31 -61 -30 -83 -38 -55 -20 12 8 11 10 -7 10 -13 0 -23 -4 -23 -10 0
-5 -13 -10 -30 -10 -16 0 -30 5 -30 10 0 6 -9 10 -20 10 -11 0 -20 -4 -20 -10
0 -5 -4 -10 -10 -10 -5 0 -10 9 -10 20 0 12 -7 31 -15 44 -13 20 -13 25 -1 35
10 8 12 24 9 54 -8 62 -20 70 -102 69 -41 -1 -71 3 -71 8 0 6 6 10 14 10 21 0
31 21 15 31 -8 5 -24 9 -36 9 -12 0 -29 10 -37 22 l-16 22 0 -22 c0 -20 -3
-21 -27 -15 -16 4 -40 7 -55 6 -22 -2 -31 5 -43 27 -9 17 -20 30 -25 30 -6 0
-10 7 -10 15 0 8 -6 12 -13 9 -7 -2 -23 7 -35 21 -13 14 -33 25 -47 25 -18 0
-31 10 -45 33 -11 17 -20 26 -20 18 0 -15 -50 -6 -61 11 -5 8 -13 6 -24 -5 -9
-10 -20 -15 -25 -12 -5 3 -11 -1 -14 -7 -4 -9 -5 -8 -5 2 1 8 -2 26 -7 40 l-8
25 -12 -30 c-10 -23 -13 -25 -14 -10 0 11 -5 27 -11 35 -8 11 -9 8 -5 -15 4
-20 3 -25 -2 -16 -8 11 -11 11 -16 0 -3 -8 -4 -3 -2 11 2 14 1 34 -4 45 -5 14
-9 2 -12 -40z m19 -57 c-3 -8 -6 -5 -6 6 -1 11 2 17 5 13 3 -3 4 -12 1 -19z
m41 -2 c-2 -1 -12 -8 -22 -16 -18 -14 -19 -14 -7 8 7 12 17 20 22 16 6 -3 9
-7 7 -8z m393 -299 c-8 -8 -11 -7 -11 4 0 20 13 34 18 19 3 -7 -1 -17 -7 -23z
m214 -77 c-3 -5 -15 -15 -26 -20 -16 -9 -19 -7 -19 10 0 15 7 20 26 20 14 0
22 -4 19 -10z m123 -94 c10 -11 -22 -35 -53 -41 -24 -5 -33 -2 -43 16 -12 18
-12 23 0 31 13 9 85 4 96 -6z m272 -6 c0 -5 -9 -10 -19 -10 -11 0 -23 5 -26
10 -4 6 5 10 19 10 14 0 26 -4 26 -10z"/>
<path d="M960 10050 c0 -5 18 -10 40 -10 22 0 40 5 40 10 0 6 -18 10 -40 10
-22 0 -40 -4 -40 -10z"/>
<path d="M950 10020 c0 -5 -9 -10 -20 -10 -11 0 -20 -4 -20 -9 0 -4 18 -8 40
-8 39 0 40 0 24 18 -19 22 -24 23 -24 9z"/>
<path d="M310 9906 c0 -8 5 -18 10 -21 6 -3 10 1 10 9 0 8 -4 18 -10 21 -5 3
-10 -1 -10 -9z"/>
<path d="M291 9874 c0 -11 3 -14 6 -6 3 7 2 16 -1 19 -3 4 -6 -2 -5 -13z"/>
<path d="M4217 9859 c7 -7 15 -10 18 -7 3 3 -2 9 -12 12 -14 6 -15 5 -6 -5z"/>
<path d="M280 9847 c0 -1 -4 -16 -9 -33 -8 -28 -7 -31 15 -30 13 1 24 5 24 9
0 4 0 12 0 19 0 6 -7 3 -16 -8 -15 -18 -15 -17 -10 14 3 17 3 32 1 32 -3 0 -5
-1 -5 -3z"/>
<path d="M4185 9824 c9 -9 13 -19 10 -22 -3 -4 -10 0 -14 7 -5 8 -11 9 -15 3
-8 -13 19 -23 39 -16 11 5 13 2 9 -9 -3 -9 -13 -18 -22 -20 -10 -3 -3 -4 13
-3 24 1 30 6 30 23 0 12 -2 21 -5 21 -20 -1 -30 4 -30 17 0 8 -7 15 -16 15
-14 0 -14 -2 1 -16z"/>
<path d="M4548 9783 c7 -3 16 -2 19 1 4 3 -2 6 -13 5 -11 0 -14 -3 -6 -6z"/>
<path d="M4600 9761 c0 -5 5 -13 10 -16 6 -3 10 -2 10 4 0 5 -4 13 -10 16 -5
3 -10 2 -10 -4z"/>
<path d="M4080 9697 c0 -15 3 -16 21 -7 16 9 25 8 40 -6 18 -16 19 -16 19 3 0
17 -8 22 -40 25 -33 3 -40 1 -40 -15z"/>
<path d="M13595 11033 c-263 -32 -521 -112 -800 -247 -252 -122 -459 -278
-622 -470 -86 -101 -171 -222 -212 -305 l-22 -43 108 7 c324 21 654 112 919
256 328 177 673 500 798 746 14 29 26 55 26 58 0 5 -146 4 -195 -2z"/>
<path d="M12810 9860 c-183 -26 -380 -82 -530 -151 -105 -49 -230 -120 -230
-131 0 -11 187 -99 303 -142 119 -44 285 -88 427 -112 158 -28 499 -25 674 4
166 29 304 64 420 107 96 36 231 104 281 141 l28 21 -64 36 c-170 94 -366 156
-638 203 -119 21 -188 26 -376 29 -126 2 -259 0 -295 -5z"/>
<path d="M11974 9189 c-6 -10 89 -162 153 -248 288 -382 762 -661 1333 -782
106 -23 360 -38 360 -22 0 16 -91 163 -145 233 -65 86 -229 249 -335 333 -328
261 -668 409 -1090 472 -70 11 -271 21 -276 14z"/>
<path d="M8232 7474 c-28 -65 -69 -162 -92 -214 -22 -52 -47 -106 -54 -120
-26 -47 -78 -181 -73 -186 3 -3 113 -2 246 2 l241 7 -7 26 c-3 14 -18 58 -33
96 -15 39 -44 122 -65 185 -43 131 -93 276 -104 304 -5 15 -19 -9 -59 -100z
m-15 -290 c-3 -3 -12 -4 -19 -1 -8 3 -5 6 6 6 11 1 17 -2 13 -5z"/>
<path d="M7266 5287 c-14 -32 -26 -60 -26 -63 0 -6 -86 -202 -135 -309 -40
-85 -95 -215 -95 -222 0 -5 502 7 507 11 2 1 -10 36 -26 77 -15 41 -63 178
-106 304 -42 127 -81 237 -85 245 -7 11 -15 0 -34 -43z"/>
<path d="M3523 7884 c-15 -6 -17 -52 -4 -72 4 -7 25 -13 47 -13 106 0 342 -8
362 -13 69 -16 -25 60 -100 80 -54 15 -283 28 -305 18z"/>
<path d="M3126 7838 c-43 -5 -88 -15 -99 -23 -18 -13 -19 -15 -4 -15 9 0 17 5
17 11 0 5 6 7 12 2 7 -4 48 -8 90 -9 76 -2 78 -1 78 22 0 13 -3 23 -7 23 -5
-1 -43 -6 -87 -11z"/>
<path d="M4660 7727 c-30 -15 -35 -31 -16 -50 8 -8 18 -26 22 -41 7 -29 34
-35 53 -12 7 8 11 33 9 57 -3 48 -29 65 -68 46z"/>
<path d="M3977 7712 c-15 -9 -25 -22 -23 -29 3 -6 -5 -13 -17 -15 -12 -2 -23
-11 -25 -21 -5 -23 28 -35 40 -14 11 20 68 23 68 5 0 -7 5 -5 11 5 12 21 3 73
-15 80 -7 3 -24 -2 -39 -11z"/>
<path d="M3752 7712 c-7 -5 -11 -23 -10 -43 l3 -34 -117 -3 -118 -3 0 -90 c0
-88 0 -90 27 -100 15 -5 47 -12 72 -15 25 -3 70 -12 99 -21 44 -13 52 -18 47
-34 -9 -28 32 -40 127 -38 78 2 79 2 109 38 16 20 34 54 40 76 6 22 12 48 15
57 4 14 0 17 -20 16 -14 -1 -26 -6 -26 -9 0 -10 -125 -4 -230 11 -47 7 -99 13
-117 14 -61 3 -41 12 54 25 116 15 147 26 139 46 -3 8 -9 21 -12 29 -3 7 2 20
10 29 24 24 20 33 -23 45 -45 14 -52 14 -69 4z"/>
<path d="M0 7693 c0 -8 12 -13 32 -13 17 0 40 -8 51 -17 15 -13 21 -15 24 -5
7 17 53 15 53 -3 0 -29 93 -34 97 -5 2 8 -4 24 -13 35 -13 18 -27 20 -129 21
-89 0 -115 -3 -115 -13z"/>
<path d="M1152 7698 c-23 -23 -8 -89 17 -74 12 8 13 41 3 69 -6 14 -10 15 -20
5z"/>
<path d="M3520 7690 c0 -22 20 -26 51 -10 30 16 23 30 -16 30 -28 0 -35 -4
-35 -20z"/>
<path d="M426 7671 c-22 -24 -13 -41 20 -41 27 0 34 30 11 49 -11 8 -18 6 -31
-8z"/>
<path d="M2803 7628 c-26 -12 -29 -30 -10 -46 6 -5 54 -15 106 -22 100 -13
174 -2 185 26 8 20 -20 31 -104 38 -41 4 -93 9 -115 11 -22 2 -50 -1 -62 -7z"/>
<path d="M4798 7597 l-86 -43 33 -27 c36 -28 59 -34 70 -17 4 6 44 10 96 9 86
-1 90 -2 106 -29 10 -17 28 -31 47 -35 28 -6 29 -8 11 -15 -35 -15 -77 -11
-112 11 -22 14 -56 23 -91 25 -56 4 -68 4 -147 3 -25 -1 -58 9 -88 24 -26 14
-73 31 -104 38 -55 13 -56 12 -78 -13 -27 -31 -61 -51 -95 -54 -30 -4 -63 -41
-55 -63 3 -8 3 -12 -1 -9 -6 7 -54 -44 -54 -58 0 -4 7 1 15 12 10 14 14 15 15
5 0 -11 4 -10 16 5 13 16 15 16 10 2 -3 -10 -1 -18 3 -18 9 0 25 30 23 43 -1
4 6 7 16 7 10 0 22 3 25 7 4 3 20 8 35 9 22 3 36 -5 62 -32 l34 -36 95 7 c71
5 102 12 121 27 36 26 78 20 104 -15 20 -27 20 -29 3 -38 -10 -6 -44 -12 -75
-13 -31 -2 -69 -9 -84 -16 -28 -13 -37 -35 -18 -42 42 -14 -83 -57 -168 -58
-24 0 -53 -5 -64 -11 -20 -11 -21 -12 -4 -24 9 -7 17 -17 17 -21 -1 -4 20 -9
46 -9 61 -2 116 -14 125 -28 17 -27 -15 -37 -112 -37 -53 0 -99 -3 -102 -6 -4
-3 10 -32 30 -65 l37 -59 107 0 c102 0 252 15 272 28 5 3 34 4 63 3 34 -2 53
2 53 9 0 6 5 8 10 5 6 -3 10 0 10 7 0 10 10 13 34 10 26 -3 37 1 50 19 30 43
23 47 -84 43 -126 -4 -198 -12 -221 -24 -20 -11 -62 -13 -72 -4 -3 4 -2 15 4
25 5 11 6 19 1 19 -16 0 -20 49 -6 61 7 5 51 10 98 10 99 1 115 12 89 63 -15
29 -14 31 11 53 15 13 35 23 44 23 9 0 26 7 36 15 11 8 37 15 58 15 24 0 45 7
58 20 23 23 112 27 104 5 -5 -11 -76 -31 -96 -26 -22 4 -4 -32 24 -49 36 -22
63 -14 73 22 7 24 14 41 65 152 24 53 28 71 19 80 -9 8 -10 7 -4 -4 6 -12 5
-13 -6 -2 -7 7 -39 12 -75 12 -65 0 -87 11 -99 51 -4 12 -12 18 -21 15 -8 -3
-14 0 -14 6 0 7 -6 4 -13 -7 -15 -19 -37 -13 -37 10 0 16 -23 26 -70 32 -26 2
-57 -7 -122 -40z"/>
<path d="M2522 7601 c-11 -7 -11 -9 2 -14 20 -8 86 3 86 14 0 11 -71 11 -88 0z"/>
<path d="M5436 7549 c-33 -81 -36 -97 -18 -102 13 -4 12 -5 -4 -6 -29 -1 -63
-74 -44 -96 7 -8 17 -12 23 -8 6 4 7 1 3 -6 -5 -7 -14 -10 -21 -7 -21 8 -43
-16 -60 -63 -18 -52 -19 -65 -3 -55 7 4 8 3 4 -4 -4 -6 -13 -9 -21 -5 -8 3
-15 1 -15 -5 0 -6 -3 -18 -7 -28 -4 -11 -3 -15 4 -11 6 4 28 0 48 -9 43 -18
108 -17 147 3 14 7 48 15 75 19 26 3 49 6 50 8 1 1 -5 22 -15 47 -16 41 -20
44 -52 43 -34 0 -65 17 -53 30 4 3 21 6 40 6 43 0 43 13 -7 125 -4 11 -11 34
-13 50 -3 17 -14 50 -24 74 l-19 45 -18 -45z m24 -309 c0 -12 -60 -31 -73 -23
-6 3 -22 7 -36 8 -13 0 -26 6 -28 11 -2 6 6 10 17 9 11 -1 39 2 63 5 44 7 57
4 57 -10z"/>
<path d="M2274 7523 c-4 -10 -7 -21 -6 -24 4 -19 -44 -43 -93 -47 -30 -2 -55
-8 -55 -13 0 -5 6 -9 13 -9 8 0 22 -9 33 -21 13 -14 27 -19 47 -16 15 2 30 0
33 -5 3 -4 -1 -8 -9 -8 -8 0 -18 -8 -21 -17 -6 -15 -8 -15 -16 -3 -8 12 -10
11 -10 -6 0 -23 -21 -44 -63 -62 -23 -10 -38 -9 -80 3 -28 8 -60 21 -71 28
-28 18 -74 29 -94 23 -21 -7 -29 -76 -9 -76 8 0 21 -8 30 -18 21 -23 64 -26
93 -7 28 18 51 19 57 3 3 -10 8 -9 22 2 10 8 16 10 12 3 -13 -21 32 -26 61 -7
34 23 122 29 122 8 0 -8 6 -14 13 -14 10 0 13 19 12 76 -1 108 3 110 202 106
99 -2 166 1 189 8 19 7 33 14 31 16 -10 10 -197 35 -264 36 -57 1 -76 5 -89
19 -10 11 -25 19 -35 19 -10 0 -21 5 -24 10 -9 15 -22 12 -31 -7z m-34 -169
c0 -8 -5 -12 -10 -9 -6 4 -8 11 -5 16 9 14 15 11 15 -7z"/>
<path d="M230 7514 c-77 -14 -78 -15 -25 -31 28 -9 94 -16 150 -17 103 -1 125
-7 125 -32 0 -8 6 -14 13 -14 6 0 76 -3 153 -6 78 -4 203 -3 278 1 119 6 137
9 134 24 -2 11 -22 20 -63 29 -33 7 -76 18 -95 24 -48 16 -192 21 -430 16 -30
0 -91 2 -135 5 -44 3 -91 3 -105 1z"/>
<path d="M3196 7503 c-4 -9 0 -23 9 -32 13 -14 15 -13 15 11 0 32 -15 45 -24
21z"/>
<path d="M993 7333 c9 -2 25 -2 35 0 9 3 1 5 -18 5 -19 0 -27 -2 -17 -5z"/>
<path d="M4245 7319 c-4 -6 -5 -12 -2 -15 2 -3 7 2 10 11 7 17 1 20 -8 4z"/>
<path d="M4196 7295 c-3 -8 -3 -15 0 -15 3 0 12 7 20 15 13 13 13 15 1 15 -8
0 -17 -7 -21 -15z"/>
<path d="M4177 7269 c7 -7 15 -10 18 -7 3 3 -2 9 -12 12 -14 6 -15 5 -6 -5z"/>
<path d="M4224 7243 c4 -7 -12 -16 -43 -24 -28 -7 -49 -17 -48 -23 3 -14 126
-58 140 -49 5 3 7 1 4 -4 -9 -15 29 -23 44 -9 9 8 10 8 5 -1 -5 -10 -1 -11 17
-4 14 6 29 7 33 3 5 -4 2 2 -6 13 -21 30 -24 32 -17 13 9 -24 -8 -23 -33 2
-11 11 -23 20 -27 20 -4 0 -22 17 -41 38 -19 20 -31 32 -28 25z"/>
<path d="M1840 7191 c0 -4 11 -6 25 -3 14 2 25 6 25 8 0 2 -11 4 -25 4 -14 0
-25 -4 -25 -9z"/>
<path d="M4381 7164 c0 -11 3 -14 6 -6 3 7 2 16 -1 19 -3 4 -6 -2 -5 -13z"/>
<path d="M1003 7160 c-50 -20 -7 -50 70 -50 48 0 117 17 117 29 0 27 -135 42
-187 21z"/>
<path d="M2847 7155 c-34 -25 15 -38 139 -38 111 1 154 7 154 23 0 30 -256 44
-293 15z"/>
<path d="M1755 7150 c-53 -4 -60 -8 -63 -28 -2 -13 -10 -25 -18 -28 -47 -14
-47 -14 -34 -29 11 -13 8 -15 -16 -15 -63 -1 3 -18 71 -19 39 -1 88 -4 111 -7
30 -4 43 -2 53 10 8 9 18 16 23 16 10 0 38 25 38 33 0 3 -15 8 -34 11 -31 6
-58 26 -67 51 -2 6 -28 8 -64 5z m-42 -97 c-7 -2 -19 -2 -25 0 -7 3 -2 5 12 5
14 0 19 -2 13 -5z"/>
<path d="M2237 7098 l-39 -10 40 -18 c27 -12 41 -26 46 -44 3 -14 13 -26 21
-26 8 0 15 -4 15 -9 0 -26 214 -37 284 -15 39 13 -42 34 -128 34 -87 0 -106 8
-106 46 0 50 -48 64 -133 42z"/>
<path d="M3510 7088 c1 -30 19 -36 120 -41 122 -7 130 -8 130 -18 0 -3 11 -9
25 -11 20 -4 28 1 40 25 8 17 13 32 10 35 -22 23 -325 31 -325 10z"/>
<path d="M5570 7082 c0 -9 -4 -10 -60 -16 -136 -15 -209 -17 -227 -8 -11 6
-29 9 -40 6 -20 -5 -53 -61 -53 -89 0 -20 75 -29 184 -21 50 3 137 6 192 7
l101 1 -7 32 c-19 74 -33 96 -62 96 -15 0 -28 -4 -28 -8z"/>
<path d="M1413 7072 c-42 -4 -63 -37 -30 -46 33 -9 100 -7 116 3 12 8 12 11 0
23 -18 18 -45 24 -86 20z"/>
<path d="M270 7030 c0 -5 9 -10 20 -10 11 0 20 5 20 10 0 6 -9 10 -20 10 -11
0 -20 -4 -20 -10z"/>
<path d="M716 7003 l-39 -36 103 6 c70 3 99 2 92 -5 -6 -6 -8 -16 -6 -23 8
-21 -24 -27 -186 -35 -158 -8 -354 -30 -345 -38 18 -18 183 -24 708 -27 425
-1 601 -5 609 -13 9 -9 7 -17 -6 -31 -9 -10 -13 -21 -9 -24 14 -9 290 -25 394
-24 113 2 139 -9 113 -48 -14 -22 -14 -24 3 -33 32 -17 90 -24 110 -14 13 8
18 22 18 54 l0 43 90 1 c50 0 96 1 103 2 13 2 17 32 5 33 -5 0 -107 2 -228 4
-310 6 -323 9 -317 66 4 29 -15 39 -78 39 -19 0 -51 5 -70 11 -19 7 -69 12
-110 13 -41 1 -113 9 -160 18 -77 15 -507 47 -606 45 -31 -1 -49 6 -73 26 -43
36 -68 34 -115 -10z"/>
<path d="M3811 6989 c10 -6 3 -9 -21 -7 -36 1 -190 -41 -190 -52 0 -15 167
-30 328 -30 191 0 193 1 143 60 l-29 35 -122 1 c-75 1 -117 -2 -109 -7z"/>
<path d="M2710 6915 c-131 -25 -140 -27 -140 -36 0 -5 6 -11 13 -14 21 -7 338
-29 402 -28 33 1 53 -1 45 -4 -24 -9 -48 -44 -43 -64 3 -11 8 -19 12 -19 4 0
16 -8 27 -18 10 -10 39 -24 63 -32 24 -8 45 -20 48 -27 8 -19 31 -16 38 6 3
10 14 26 25 36 16 14 20 31 20 75 l0 57 -60 7 c-33 4 -63 13 -67 20 -24 42
-248 66 -383 41z"/>
<path d="M4964 6896 c5 -15 4 -17 -7 -8 -8 7 -17 8 -23 2 -12 -12 -62 -17
-229 -25 -71 -3 -151 -8 -177 -11 l-48 -6 0 -55 0 -55 128 4 c85 3 140 10 167
21 35 14 94 24 158 26 11 1 25 18 38 48 18 43 19 48 3 62 -15 15 -16 14 -10
-3z"/>
<path d="M3543 6863 c-31 -4 -33 -6 -33 -46 0 -66 5 -69 90 -56 43 6 107 8
154 4 45 -3 133 -9 196 -11 63 -3 131 -6 150 -7 31 -2 35 1 38 24 2 14 -1 37
-7 51 -9 24 -14 26 -108 31 -145 10 -443 16 -480 10z"/>
<path d="M5116 6814 c-3 -9 -6 -17 -6 -18 0 -2 227 -9 291 -9 29 0 89 24 89
35 0 5 -83 8 -184 8 -158 0 -185 -2 -190 -16z"/>
<path d="M1038 6718 c5 -5 16 -8 23 -6 8 3 3 7 -10 11 -17 4 -21 3 -13 -5z"/>
<path d="M5141 6708 c-25 -4 -47 -6 -49 -3 -7 7 -26 -17 -46 -60 -10 -22 -23
-47 -27 -57 -12 -25 12 -39 49 -29 31 9 108 8 196 -5 31 -4 63 -1 88 7 33 11
43 10 73 -4 20 -9 54 -20 78 -24 l42 -7 -45 -7 c-25 -4 -75 -8 -112 -8 -49 -1
-83 -8 -124 -26 -31 -14 -60 -23 -64 -20 -5 3 -11 1 -14 -4 -9 -13 20 -21 54
-15 21 5 31 2 36 -9 4 -11 15 -14 44 -10 43 6 90 -3 90 -17 0 -14 -191 -9
-197 6 -4 10 -10 10 -29 2 -18 -8 -43 -8 -96 1 -125 21 -126 21 -132 5 -3 -9
-6 -26 -6 -39 0 -28 36 -41 143 -51 37 -4 67 -10 67 -14 0 -4 -9 -29 -21 -54
-21 -47 -21 -47 -62 -42 -23 3 -34 3 -24 0 29 -9 14 -28 -29 -37 -51 -10 -64
-24 -33 -35 47 -18 264 -21 381 -6 62 8 127 17 143 19 65 8 111 8 123 1 7 -4
19 -2 27 4 8 7 15 9 15 5 0 -4 6 -2 14 5 16 12 10 44 -5 34 -5 -3 -7 -10 -4
-15 3 -5 -1 -6 -9 -3 -9 3 -14 9 -12 13 2 3 -2 15 -10 26 -8 10 -14 13 -14 6
0 -8 -9 -11 -27 -7 -16 3 -47 7 -71 8 -24 1 -46 6 -48 10 -3 4 -15 8 -27 8
-18 0 -19 2 -7 10 8 5 63 10 123 10 59 0 107 4 107 8 0 4 15 14 34 20 34 12
55 38 33 40 -7 0 -72 5 -145 10 -73 5 -135 12 -138 15 -6 6 126 21 176 19 19
0 74 -2 123 -3 78 -2 108 -10 75 -21 -8 -3 -6 -7 4 -11 13 -5 16 0 12 26 -7
56 -16 91 -32 122 -9 17 -17 39 -19 49 -2 11 -8 25 -13 31 -5 7 -7 15 -3 18 3
4 1 7 -6 7 -7 0 -9 5 -6 11 4 6 0 30 -10 54 l-16 44 -287 -1 c-158 -1 -307 -6
-331 -10z m-96 -138 c3 -5 1 -10 -4 -10 -6 0 -11 5 -11 10 0 6 2 10 4 10 3 0
8 -4 11 -10z m734 -32 c4 7 11 5 18 -6 10 -16 6 -18 -38 -17 -73 3 -78 6 -34
20 25 7 41 8 44 2 2 -5 6 -5 10 1z"/>
<path d="M2368 6688 c-13 -13 -31 -27 -42 -33 -32 -17 -23 -29 28 -42 66 -16
83 -34 68 -68 -16 -35 -15 -54 3 -62 24 -9 55 26 55 62 0 29 4 33 34 38 19 3
72 4 117 2 86 -3 149 14 149 39 0 13 -95 31 -220 42 -41 3 -95 15 -119 25 -53
23 -47 23 -73 -3z"/>
<path d="M4565 6702 c-87 -3 -95 -8 -95 -62 l0 -36 74 7 c40 4 109 17 152 29
92 26 124 31 139 22 15 -10 36 -11 30 -2 -3 4 2 11 11 14 20 8 9 25 -14 21 -9
-2 -17 -4 -17 -5 0 -7 -56 -7 -80 0 -40 12 -103 16 -200 12z"/>
<path d="M4060 6679 c-19 -9 -60 -22 -90 -28 -71 -15 -89 -26 -72 -43 8 -8 47
-14 105 -16 109 -4 126 4 130 63 2 34 -1 40 -18 40 -11 1 -36 -7 -55 -16z"/>
<path d="M3585 6641 l-60 -6 -3 -35 c-3 -33 -1 -36 40 -50 39 -14 53 -14 148
2 174 29 179 33 108 66 -48 23 -144 32 -233 23z"/>
<path d="M1538 6619 c-78 -8 -138 -28 -138 -45 0 -7 16 -18 36 -24 19 -7 38
-18 41 -26 6 -17 46 -18 74 -3 15 7 24 7 35 -2 18 -15 18 -29 -1 -29 -8 0 -15
-4 -15 -10 0 -14 16 -12 51 5 16 9 27 20 24 25 -4 6 2 10 12 10 10 0 28 7 41
15 15 11 32 14 58 9 29 -5 39 -14 50 -40 30 -72 14 -89 -114 -115 -34 -7 -62
-16 -62 -20 0 -14 125 -21 275 -16 177 7 164 5 145 17 -8 5 -30 10 -49 10 -18
0 -49 10 -68 21 -31 19 -33 23 -19 38 8 9 30 33 50 54 19 21 33 44 31 50 -2 7
-6 25 -10 40 -6 28 -7 29 -58 23 -29 -3 -71 -8 -95 -12 -23 -3 -62 -1 -86 5
-24 6 -61 13 -83 16 -21 3 -42 7 -48 8 -5 2 -40 0 -77 -4z"/>
<path d="M690 6576 l-24 -14 39 -16 c39 -16 59 -16 140 4 22 5 55 10 73 10 33
0 37 18 4 20 -124 10 -210 8 -232 -4z"/>
<path d="M3923 6545 c-18 -8 -33 -19 -33 -24 0 -11 75 -32 118 -33 18 -1 35
-5 38 -10 9 -14 64 32 64 53 0 14 -7 19 -27 19 -16 0 -50 2 -78 5 -32 3 -62
-1 -82 -10z"/>
<path d="M2561 6537 c-32 -8 -33 -9 -15 -26 25 -23 52 -32 59 -21 4 6 16 10
28 10 12 1 32 6 45 14 22 12 20 13 -30 22 -32 6 -68 6 -87 1z"/>
<path d="M4442 6539 c-10 -4 -22 -16 -24 -27 -5 -17 -2 -19 21 -15 27 5 58 8
146 11 30 1 45 6 40 11 -14 13 -159 29 -183 20z"/>
<path d="M6150 6534 c0 -14 3 -14 15 -4 8 7 15 14 15 16 0 2 -7 4 -15 4 -8 0
-15 -7 -15 -16z"/>
<path d="M3670 6493 c-19 -3 -39 -8 -43 -12 -24 -24 126 -80 150 -57 7 6 19
17 28 24 45 38 -16 59 -135 45z"/>
<path d="M2198 6482 c-47 -4 -48 -14 -4 -30 19 -7 40 -20 47 -28 20 -25 -14
-44 -78 -44 -40 0 -53 -4 -53 -15 0 -12 17 -15 93 -15 90 0 111 5 113 25 3 23
17 55 25 55 5 0 8 5 7 12 -2 7 11 15 27 18 l30 7 -35 6 c-53 9 -130 13 -172 9z"/>
<path d="M4717 6454 c-2 -2 -24 -4 -50 -5 -26 -1 -47 -6 -47 -11 0 -4 -19 -8
-42 -8 -33 0 -39 -3 -30 -12 16 -16 15 -28 -3 -28 -8 0 -15 -4 -15 -10 0 -15
38 -12 43 3 3 9 8 9 21 -2 15 -13 19 -13 27 0 7 11 9 11 9 0 0 -11 3 -11 17 0
11 10 14 10 9 2 -4 -8 -2 -13 6 -14 7 -1 25 -3 41 -5 22 -2 32 4 52 34 33 48
32 61 -5 60 -16 -1 -31 -3 -33 -4z"/>
<path d="M2527 6443 c-38 -4 -58 -26 -41 -43 15 -15 52 0 69 26 8 13 14 23 13
22 -2 -1 -20 -3 -41 -5z"/>
<path d="M2620 6440 c10 -6 11 -10 3 -10 -7 0 -10 -7 -7 -15 8 -20 58 -19 74
0 16 20 14 21 -40 29 -31 4 -40 3 -30 -4z"/>
<path d="M2400 6378 c0 -14 8 -18 33 -18 26 0 33 4 33 20 0 16 -6 19 -33 17
-24 -1 -33 -7 -33 -19z"/>
<path d="M4376 6373 c-4 -11 6 -13 47 -11 62 4 62 22 0 24 -27 1 -44 -4 -47
-13z"/>
<path d="M4331 6371 c-10 -6 -9 -10 3 -14 8 -3 18 -2 21 3 8 13 -9 20 -24 11z"/>
<path d="M2540 6342 c-40 -6 -43 -17 -12 -50 l29 -31 12 22 c17 33 2 63 -29
59z"/>
<path d="M2663 6331 c-12 -18 -10 -21 12 -27 34 -8 57 2 53 23 -5 26 -50 28
-65 4z"/>
<path d="M5780 6339 c0 -5 5 -7 10 -4 6 3 10 8 10 11 0 2 -4 4 -10 4 -5 0 -10
-5 -10 -11z"/>
<path d="M2290 6290 c-14 -4 -55 -8 -92 -9 -60 -1 -69 -4 -84 -26 -9 -14 -23
-25 -31 -25 -8 0 -11 -4 -8 -10 3 -5 46 -10 95 -10 88 0 90 0 104 -29 16 -30
40 -41 94 -41 17 0 32 -5 32 -11 0 -5 5 -7 10 -4 6 3 10 18 10 33 0 20 -8 33
-30 45 -17 10 -32 30 -36 45 -12 58 -13 58 -64 42z"/>
<path d="M1235 6250 c-126 -4 -192 -11 -219 -21 l-39 -15 84 -19 c69 -15 121
-18 285 -17 196 2 272 12 281 39 4 11 -84 30 -162 35 -27 2 -131 1 -230 -2z"/>
<path d="M4274 6240 c-125 -13 -165 -28 -97 -36 130 -15 206 -19 248 -12 28 5
84 9 125 9 41 1 80 4 85 9 6 4 19 10 30 13 11 2 -24 3 -77 2 -76 -3 -98 -1
-102 11 -6 16 -86 17 -212 4z"/>
<path d="M3185 6221 c-26 -11 -21 -13 130 -47 206 -45 526 -37 554 14 6 11 23
17 50 17 23 0 41 3 41 6 0 4 10 5 23 2 12 -3 19 -3 15 1 -9 11 -789 17 -813 7z"/>
<path d="M4758 6223 c39 -2 105 -2 145 0 39 1 7 3 -73 3 -80 0 -112 -2 -72 -3z"/>
<path d="M5963 6223 c15 -2 37 -2 50 0 12 2 0 4 -28 4 -27 0 -38 -2 -22 -4z"/>
<path d="M655 6138 c-27 -3 -78 -7 -112 -7 -47 -1 -63 -5 -63 -15 0 -13 85
-25 170 -24 14 0 106 -1 205 -2 180 -2 297 6 325 20 16 9 -15 14 -180 29 -113
10 -264 10 -345 -1z"/>
<path d="M1981 6120 c-8 -4 6 -12 34 -20 25 -7 48 -10 52 -7 10 11 43 -13 43
-31 0 -18 18 -42 31 -42 8 0 -1 82 -10 92 -9 9 -137 17 -150 8z"/>
<path d="M4017 6124 c-14 -15 7 -24 51 -23 26 1 38 3 27 6 -11 3 -24 9 -29 14
-11 10 -40 12 -49 3z"/>
<path d="M4138 6103 c6 -2 18 -2 25 0 6 3 1 5 -13 5 -14 0 -19 -2 -12 -5z"/>
<path d="M2075 6019 c-4 -6 -5 -12 -2 -15 2 -3 7 2 10 11 7 17 1 20 -8 4z"/>
<path d="M2162 6015 c8 -8 98 -9 105 -1 4 3 -20 6 -52 6 -32 0 -56 -2 -53 -5z"/>
<path d="M2020 5960 c0 -11 -6 -23 -14 -26 -8 -3 -13 -11 -10 -17 4 -13 124
-24 124 -12 0 11 -44 44 -57 45 -7 0 -13 7 -13 15 0 8 -7 15 -15 15 -8 0 -15
-9 -15 -20z"/>
<path d="M4460 5884 c-14 -3 -43 -10 -65 -16 l-40 -12 60 -6 c33 -4 132 -8
219 -9 88 -1 167 -6 176 -11 13 -7 22 -4 34 9 21 23 20 31 -3 31 -11 0 -23 5
-26 10 -6 9 -297 12 -355 4z"/>
<path d="M1905 5872 c-69 -15 -55 -82 18 -82 29 0 50 22 45 46 -4 22 -38 42
-63 36z"/>
<path d="M4173 5853 c9 -2 25 -2 35 0 9 3 1 5 -18 5 -19 0 -27 -2 -17 -5z"/>
<path d="M1360 5779 c0 -5 5 -7 10 -4 6 3 10 8 10 11 0 2 -4 4 -10 4 -5 0 -10
-5 -10 -11z"/>
<path d="M3243 5770 c-46 -4 -66 -10 -76 -25 -13 -16 -17 -17 -31 -6 -14 11
-16 11 -16 -3 0 -14 8 -16 58 -12 111 11 168 16 237 21 39 4 84 8 100 11 17 2
61 6 99 9 38 3 72 7 74 10 6 6 -363 2 -445 -5z"/>
<path d="M1365 5740 c8 -13 45 -13 65 0 11 7 3 10 -28 10 -26 0 -41 -4 -37
-10z"/>
<path d="M3080 5730 c0 -5 5 -10 11 -10 5 0 7 5 4 10 -3 6 -8 10 -11 10 -2 0
-4 -4 -4 -10z"/>
<path d="M3008 5713 c7 -3 16 -2 19 1 4 3 -2 6 -13 5 -11 0 -14 -3 -6 -6z"/>
<path d="M3043 5710 c4 -18 37 -27 37 -10 0 6 -5 8 -11 4 -6 -3 -16 0 -21 7
-8 12 -9 11 -5 -1z"/>
<path d="M3215 5580 c3 -5 8 -10 11 -10 2 0 4 5 4 10 0 6 -5 10 -11 10 -5 0
-7 -4 -4 -10z"/>
<path d="M5347 5584 c-4 -4 -7 -18 -7 -30 l0 -23 284 1 c156 0 288 -2 295 -6
7 -5 9 -1 5 8 -14 36 -99 50 -339 54 -127 2 -234 0 -238 -4z"/>
<path d="M3884 5571 c6 -10 3 -10 -209 -14 l-140 -2 -3 -41 -3 -41 53 -6 c29
-4 81 -7 116 -7 34 0 62 -4 62 -9 0 -5 15 -13 33 -16 17 -4 37 -11 43 -16 6
-5 34 -5 66 1 31 6 60 10 65 9 19 -3 59 2 72 10 31 20 -67 121 -116 121 -13 0
-23 5 -23 10 0 6 -5 10 -11 10 -5 0 -8 -4 -5 -9z"/>
<path d="M3798 5403 c7 -3 16 -2 19 1 4 3 -2 6 -13 5 -11 0 -14 -3 -6 -6z"/>
<path d="M3775 5340 l-250 -5 -3 -249 -2 -249 112 7 c250 15 379 86 436 239
23 61 35 178 24 227 -9 41 25 38 -317 30z"/>
</g>
</svg>
