<svg width="263" height="174" viewBox="0 0 263 174" fill="none" xmlns="http://www.w3.org/2000/svg">
<g clip-path="url(#clip0_453_22)">
<g clip-path="url(#clip1_453_22)">
<path d="M158.969 -50L113 -23.4598L190.864 111.404C205.521 136.792 237.985 145.491 263.373 130.833V130.833L158.969 -50Z" fill="#ADADAD"/>
</g>
<g clip-path="url(#clip2_453_22)">
<g filter="url(#filter0_d_453_22)">
<path d="M123.071 -52L193.215 -11.5025L111.641 129.787C89.2752 168.526 39.7395 181.799 1.00018 159.433V159.433L123.071 -52Z" fill="white"/>
</g>
</g>
<g clip-path="url(#clip3_453_22)">
<path d="M122.071 -49L192.215 -8.50251L110.641 132.787C88.2752 171.526 38.7395 184.799 0.000183105 162.433V162.433L122.071 -49Z" fill="white"/>
</g>
<rect x="146" y="110" width="25" height="24" fill="#ACACAC"/>
</g>
<defs>
<filter id="filter0_d_453_22" x="-3" y="-52" width="200.215" height="230.298" filterUnits="userSpaceOnUse" color-interpolation-filters="sRGB">
<feFlood flood-opacity="0" result="BackgroundImageFix"/>
<feColorMatrix in="SourceAlpha" type="matrix" values="0 0 0 0 0 0 0 0 0 0 0 0 0 0 0 0 0 0 127 0" result="hardAlpha"/>
<feOffset dy="4"/>
<feGaussianBlur stdDeviation="2"/>
<feComposite in2="hardAlpha" operator="out"/>
<feColorMatrix type="matrix" values="0 0 0 0 0 0 0 0 0 0 0 0 0 0 0 0 0 0 0.25 0"/>
<feBlend mode="normal" in2="BackgroundImageFix" result="effect1_dropShadow_453_22"/>
<feBlend mode="normal" in="SourceGraphic" in2="effect1_dropShadow_453_22" result="shape"/>
</filter>
<clipPath id="clip0_453_22">
<rect width="263" height="174" fill="white"/>
</clipPath>
<clipPath id="clip1_453_22">
<rect width="203" height="205" fill="white" transform="matrix(-1 0 0 1 275 0)"/>
</clipPath>
<clipPath id="clip2_453_22">
<rect width="70" height="56" fill="white" transform="translate(132)"/>
</clipPath>
<clipPath id="clip3_453_22">
<rect width="203" height="205" fill="white"/>
</clipPath>
</defs>
</svg>
